<svg width="339" height="196" viewBox="0 0 339 196" fill="none" xmlns="http://www.w3.org/2000/svg">
<path d="M200.255 146.759L196.29 157.228C196.29 157.228 191.878 159.098 189.059 160.323C188.243 160.661 187.465 161.006 186.72 161.328C187.112 160.747 187.536 160.095 188.015 159.365L188.957 157.872L187.277 157.323C185.432 156.702 183.477 156.019 181.734 155.406C183.838 155.375 185.055 155.335 185.801 155.233C185.934 155.218 186.076 155.178 186.193 155.131C186.774 154.896 187.198 154.346 187.269 153.71C187.301 153.348 187.222 152.987 187.034 152.696C186.79 152.249 186.296 151.416 185.275 149.751C184.827 149.013 184.27 148.078 183.72 147.183C185.581 148.086 187.724 149.115 189.334 149.885L191.163 150.741L191.305 148.738C191.477 146.295 191.752 143.57 192.043 141.583C192.663 143.209 193.393 145.329 193.99 147.277L194.414 148.628L195.764 148.165C197.256 147.63 200.247 146.782 200.247 146.782L200.255 146.759ZM240.194 163.166C228.464 162.585 217.943 160.621 210.571 159.262C207.266 158.666 203.898 158.045 201.715 157.825C204.722 160.456 212.079 165.185 222.136 169.284C226.313 170.981 232.397 173.117 239.275 174.507L239.895 166.795H239.88L240.186 163.166H240.194ZM327.522 182.959C322.12 177.743 312.353 169.442 300.82 164.957L305.319 180.445C315.926 185.048 325.111 190.64 331.911 194.921H338.121C335.553 191.449 331.981 187.271 327.53 182.959H327.522ZM290.684 144.905L245.705 146.476L243.358 175.222L243.012 179.361L241.732 194.928H305.232L290.692 144.913L290.684 144.905ZM328.173 68.9865C327.914 63.4728 326.98 58.1399 325.441 53.0582C318.854 31.0351 301.142 13.7716 278.868 7.81808C273.93 6.49858 268.795 5.72887 263.496 5.57964C263.441 5.52466 263.378 5.46183 263.339 5.40685L263.323 5.39114L226.69 2.86209L200.011 1.01636L208.2 15.9236L212.785 24.2883L215.235 24.4454L230.215 25.4193L230.851 25.4664H230.898L241.23 26.1183L264.681 27.6263C272.807 28.1526 280.894 29.1186 288.886 30.556C289.145 30.6031 289.31 30.6266 289.35 30.6423L289.436 30.6581C289.899 30.7759 290.339 30.933 290.755 31.1686L290.826 31.2236C291.736 31.7341 292.482 32.5195 292.914 33.4777C295.277 38.5594 297.546 43.8767 299.705 49.3196C307.313 68.4838 313.578 89.3602 317.582 108.21C324.318 97.8113 328.22 85.4174 328.22 72.1439C328.22 71.0836 328.205 70.0232 328.15 68.9786L328.173 68.9865ZM284.136 40.8606C283.917 40.8135 283.642 40.7585 283.312 40.7036C278.232 39.8317 273.098 39.2191 267.939 38.9049L240.555 37.1299V37.1456C239.063 54.0321 236.025 65.3736 233.921 73.1963C233.12 76.1731 232.24 79.4797 232.076 81.1526C233.889 81.5296 237.72 81.3725 239.911 81.2861C246.459 80.9955 253.219 80.7049 255.951 86.1793C258.141 90.5462 256.767 95.6043 255.009 102.005C252.151 112.475 248.594 125.482 258.911 138.677C259.821 138.724 260.74 138.747 261.651 138.747C279.936 138.747 296.51 131.341 308.561 119.363C303.819 92.7925 294.618 63.9991 284.136 40.8606V40.8606ZM244.386 99.0994C244.998 96.8453 245.776 93.9864 245.996 92.2192C244.441 92.1171 242.109 92.2192 240.39 92.2899C234.093 92.5648 227.577 92.8397 223.659 88.779C219.49 84.4357 221.005 78.8356 223.282 70.3374C225.253 62.9623 228.119 52.2885 229.54 36.5408C229.54 36.5094 229.555 36.4702 229.555 36.4387L206.465 34.9543C205.829 35.9125 205.185 36.9021 204.597 37.8839C198.559 47.9058 195.089 59.6322 195.089 72.1517C195.089 103.034 216.224 129.079 244.771 136.572C238.121 122.042 241.944 108.069 244.394 99.0994H244.386ZM136.928 33.0143C127.922 32.1268 119.31 31.7027 111.247 31.6163C112.699 47.5995 115.604 58.4305 117.606 65.9076C119.914 74.5237 121.437 80.218 117.213 84.6085C113.233 88.7476 106.622 88.457 100.216 88.1978C98.4885 88.1114 96.1017 88.0093 94.5394 88.1114C94.7749 89.9022 95.56 92.8161 96.1802 95.1017C98.6612 104.213 102.54 118.366 95.8034 133.132C124.766 125.521 146.208 99.0994 146.208 67.7534C146.208 55.4851 142.942 43.4839 136.928 33.0065V33.0143ZM106.803 68.8058C104.652 60.8024 101.519 49.1154 100.019 31.6791C78.3032 32.1896 62.0749 34.8208 55.8176 35.9989C45.2735 59.3651 35.9621 88.3863 31.1415 115.224C44.2607 127.877 61.808 135.346 78.6565 135.346C79.583 135.346 80.5172 135.315 81.428 135.276C91.9014 121.892 88.2977 108.682 85.3928 98.0627C83.6184 91.5673 82.2131 86.4228 84.435 81.993C87.2064 76.4401 94.0683 76.7307 100.718 77.0213C102.94 77.1234 106.834 77.2805 108.679 76.9035C108.522 75.1913 107.619 71.8297 106.803 68.8058V68.8058ZM124.484 17.2038C120.181 13.1354 115.478 9.76592 110.477 7.10335C106.905 5.20264 103.168 3.67107 99.3364 2.52436C93.872 0.898545 88.1799 0.050293 82.4172 0.050293C81.2709 0.050293 80.1247 0.0817097 78.9706 0.152397C78.2012 0.199523 77.4474 0.254502 76.678 0.309481C71.0723 0.75717 65.7728 1.70753 60.7402 3.12913C47.2598 6.92271 35.9463 14.1721 26.9804 24.7831C21.1234 31.7027 16.4755 39.7375 12.8169 48.4399C10.3045 54.4013 8.2554 60.6768 6.58311 67.1015C-0.616379 94.9367 -0.545719 125.67 0.859634 147.073C8.06697 137.601 15.3999 127.728 19.5846 115.146L19.9771 113.952C23.8085 92.4312 31.0315 67.1565 40.1074 44.3322C42.2901 38.8657 44.5669 33.5484 46.9379 28.451C47.3854 27.4928 48.1313 26.7074 49.0577 26.1969L49.1127 26.1655C49.5367 25.9298 49.9842 25.757 50.4474 25.6549L50.5181 25.6392C51.0284 25.5214 55.0325 24.6182 61.808 23.605C70.3893 22.3091 83.4065 20.8325 99.36 20.4555C102.948 20.3691 106.677 20.3377 110.548 20.3848C116.201 20.4398 122.128 20.6597 128.268 21.0681C127.059 19.7486 125.795 18.4369 124.476 17.2038H124.484ZM74.4012 170.557L77.4788 176.573L80.4701 182.44C95.0811 182.833 111.121 178.804 117.842 175.961C127.993 171.688 135.389 166.779 138.411 164.03C126.556 166.889 94.4451 170.266 74.3933 170.557H74.4012ZM78.0755 186.917L75.6338 182.15L69.7062 170.565L67.4529 166.151L60.434 152.422L42.6669 195.054H82.2209L78.0677 186.917H78.0755ZM22.0184 179.856C16.0594 185.613 11.6942 191.135 9.11903 195.054H12.7541C13.4686 194.606 14.2066 194.135 14.9367 193.672C22.2304 189.038 33.0493 182.165 45.7603 176.746L52.5986 160.354C39.4087 164.438 28.0324 174.028 22.0184 179.856V179.856ZM150.753 163.449L152.449 162.868C154.334 162.2 156.304 161.493 158.047 160.849C155.92 160.849 154.687 160.818 153.917 160.716C153.132 160.613 152.528 159.993 152.441 159.192C152.387 158.831 152.457 158.469 152.63 158.147C152.889 157.715 153.368 156.867 154.373 155.163C154.82 154.393 155.386 153.45 155.927 152.524C154.043 153.482 151.884 154.542 150.259 155.335L148.43 156.246L148.257 154.212C148.053 151.73 147.723 148.974 147.401 146.963C146.789 148.628 146.082 150.796 145.501 152.767L145.093 154.142L143.727 153.694C142.204 153.176 139.157 152.359 139.157 152.359L143.829 163.103C143.829 163.103 148.131 164.87 150.714 165.931C151.515 166.261 152.308 166.583 153.077 166.905C152.669 166.323 152.222 165.672 151.743 164.949L150.753 163.441V163.449Z" fill="#E52081"/>
</svg>
