<svg width="229" height="229" viewBox="0 0 229 229" fill="none" xmlns="http://www.w3.org/2000/svg">
<path fill-rule="evenodd" clip-rule="evenodd" d="M183.102 143.697C183.102 149.293 178.574 153.827 172.984 153.844V162.81C178.574 162.825 183.102 167.361 183.102 172.955C183.102 178.56 178.56 183.102 172.955 183.102C167.351 183.102 162.808 178.56 162.808 172.955C162.808 172.945 162.809 172.936 162.809 172.926H153.843C153.843 172.936 153.844 172.945 153.844 172.955C153.844 178.56 149.301 183.102 143.697 183.102C138.092 183.102 133.55 178.56 133.55 172.955C133.55 172.945 133.551 172.936 133.551 172.926H124.585C124.585 172.936 124.586 172.945 124.586 172.955C124.586 178.56 120.042 183.102 114.438 183.102C108.834 183.102 104.291 178.56 104.291 172.955C104.291 172.945 104.292 172.936 104.292 172.926H95.3266C95.3266 172.936 95.3276 172.945 95.3276 172.955C95.3276 178.56 90.7854 183.102 85.1807 183.102C79.576 183.102 75.0338 178.56 75.0338 172.955C75.0338 172.945 75.0348 172.936 75.0348 172.926H66.0692C66.0692 172.936 66.0701 172.945 66.0701 172.955C66.0701 178.56 61.5279 183.102 55.9232 183.102C50.3185 183.102 45.7754 178.56 45.7754 172.955C45.7754 167.352 50.3195 162.808 55.9232 162.808C55.9319 162.808 55.9414 162.809 55.951 162.809V153.843C55.9414 153.843 55.9319 153.844 55.9232 153.844C50.3188 153.844 45.7754 149.299 45.7754 143.696C45.7754 138.093 50.3195 133.548 55.9232 133.548C55.9319 133.548 55.9414 133.549 55.951 133.549L55.9549 124.585C55.9453 124.585 55.9357 124.586 55.9271 124.586C50.3226 124.586 45.7792 120.044 45.7792 114.439C45.7792 108.834 50.3234 104.292 55.9271 104.292C55.9357 104.292 55.9453 104.293 55.9549 104.293V95.3266C55.9453 95.3266 55.9357 95.3275 55.9271 95.3275C50.3226 95.3275 45.7792 90.7852 45.7792 85.1803C45.7792 79.5754 50.3234 75.0331 55.9271 75.0331C55.9357 75.0331 55.9453 75.0341 55.9549 75.0341V66.0681C55.9453 66.0681 55.9357 66.0691 55.9271 66.0691C50.3243 66.07 45.7802 61.5258 45.7802 55.9228C45.7802 50.3189 50.3243 45.7756 55.9281 45.7756C61.522 45.7756 66.0568 50.3037 66.073 55.8951H75.0386C75.0539 50.3047 79.5896 45.7756 85.1835 45.7756C90.7774 45.7756 95.314 50.3037 95.3284 55.8951H104.294C104.312 50.3037 108.847 45.7756 114.441 45.7756C120.035 45.7756 124.571 50.3037 124.588 55.8951H133.553C133.569 50.3047 138.103 45.7756 143.698 45.7756C149.294 45.7756 153.829 50.3037 153.843 55.8951H162.81C162.825 50.3047 167.36 45.7756 172.955 45.7756C178.559 45.7756 183.102 50.318 183.102 55.9228C183.102 61.5169 178.574 66.0536 172.984 66.0681V75.0341C178.574 75.0494 183.102 79.5852 183.102 85.1793C183.102 90.7734 178.574 95.3101 172.984 95.3246V104.291C178.574 104.307 183.102 108.842 183.102 114.436C183.102 120.032 178.574 124.565 172.984 124.581V133.547C178.574 133.565 183.102 138.102 183.102 143.696L183.102 143.697ZM162.836 144.253C162.826 144.067 162.808 143.883 162.808 143.697C162.808 143.51 162.826 143.326 162.836 143.142V114.992C162.826 114.807 162.808 114.625 162.808 114.436C162.808 114.249 162.826 114.065 162.836 113.881V85.7367C162.826 85.5508 162.808 85.3688 162.808 85.1801C162.808 84.9933 162.826 84.8094 162.836 84.6255V66.041H144.253C144.067 66.0506 143.885 66.0698 143.698 66.0698C143.512 66.0698 143.328 66.0516 143.144 66.041H114.995C114.811 66.0516 114.628 66.0698 114.441 66.0698C114.254 66.0698 114.07 66.0516 113.886 66.041H85.7375C85.5517 66.0506 85.3697 66.0698 85.1829 66.0698C84.9952 66.0698 84.8122 66.0516 84.6283 66.041H66.1009V162.78H162.834L162.836 144.253ZM155.375 121.535L136.454 101.241L112.778 135.065L97.2191 121.534L73.522 141.828V73.5027H155.373V121.535H155.375ZM94.8527 81.6C88.6887 81.6 83.6914 86.5975 83.6914 92.7618C83.6914 98.926 88.6887 103.923 94.8527 103.923C101.017 103.923 106.014 98.926 106.014 92.7618C106.014 86.5985 101.017 81.6 94.8527 81.6Z" fill="#E52081"/>
</svg>
