<svg width="230" height="229" viewBox="0 0 230 229" fill="none" xmlns="http://www.w3.org/2000/svg">
<path fill-rule="evenodd" clip-rule="evenodd" d="M81.2807 71.8678H148.113C153.149 71.8678 157.268 75.9878 157.268 81.0224V147.855C157.268 152.89 153.148 157.009 148.113 157.009H81.2807C76.2451 157.009 72.1261 152.889 72.1261 147.855V81.0224C72.1261 75.9868 76.2461 71.8678 81.2807 71.8678ZM46.0352 86.058C46.0352 84.2275 47.4088 83.3118 48.7814 83.3118H62.9715C64.3452 83.3118 65.7178 84.2275 65.7178 86.058C65.7178 87.4316 64.3441 88.8042 62.9715 88.8042H48.7814C47.4078 88.8042 46.0352 87.4306 46.0352 86.058ZM46.0352 97.5019C46.0352 95.6714 47.4088 94.2979 48.7814 94.2979H62.9715C64.3452 94.2979 65.7178 95.6715 65.7178 97.5019C65.7178 98.8756 64.3441 100.248 62.9715 100.248H48.7814C47.4078 100.248 46.0352 98.8745 46.0352 97.5019ZM46.0352 108.946C46.0352 107.115 47.4088 105.742 48.7814 105.742H62.9715C64.3452 105.742 65.7178 107.115 65.7178 108.946C65.7178 110.319 64.3441 111.692 62.9715 111.692H48.7814C47.4078 111.692 46.0352 110.318 46.0352 108.946ZM46.0352 119.932C46.0352 118.558 47.4088 117.186 48.7814 117.186H62.9715C64.3452 117.186 65.7178 118.559 65.7178 119.932C65.7178 121.763 64.3441 123.136 62.9715 123.136H48.7814C47.4078 123.136 46.0352 121.762 46.0352 119.932ZM46.0352 131.376C46.0352 130.002 47.4088 128.63 48.7814 128.63H62.9715C64.3452 128.63 65.7178 130.003 65.7178 131.376C65.7178 133.206 64.3441 134.58 62.9715 134.58H48.7814C47.4078 134.58 46.0352 133.206 46.0352 131.376ZM46.0352 142.82C46.0352 141.446 47.4088 140.074 48.7814 140.074H62.9715C64.3452 140.074 65.7178 141.447 65.7178 142.82C65.7178 144.65 64.3441 145.566 62.9715 145.566H48.7814C47.4078 145.566 46.0352 144.65 46.0352 142.82ZM86.3175 183.102C84.487 183.102 83.5713 181.729 83.5713 180.356V166.166C83.5713 164.792 84.487 163.42 86.3175 163.42C87.6911 163.42 89.0637 164.793 89.0637 166.166V180.356C89.0637 181.73 87.6901 183.102 86.3175 183.102ZM97.7614 183.102C95.9309 183.102 94.5574 181.729 94.5574 180.356V166.166C94.5574 164.792 95.931 163.42 97.7614 163.42C99.1351 163.42 100.508 164.793 100.508 166.166V180.356C100.508 181.73 99.134 183.102 97.7614 183.102ZM109.205 183.102C107.375 183.102 106.001 181.729 106.001 180.356V166.166C106.001 164.792 107.375 163.42 109.205 163.42C110.579 163.42 111.952 164.793 111.952 166.166V180.356C111.952 181.73 110.578 183.102 109.205 183.102ZM120.192 183.102C118.818 183.102 117.445 181.729 117.445 180.356V166.166C117.445 164.792 118.819 163.42 120.192 163.42C122.022 163.42 123.396 164.793 123.396 166.166V180.356C123.396 181.73 122.022 183.102 120.192 183.102ZM131.635 183.102C130.262 183.102 128.889 181.729 128.889 180.356V166.166C128.889 164.792 130.263 163.42 131.635 163.42C133.466 163.42 134.839 164.793 134.839 166.166V180.356C134.839 181.73 133.466 183.102 131.635 183.102ZM143.079 183.102C141.706 183.102 140.333 181.729 140.333 180.356V166.166C140.333 164.792 141.707 163.42 143.079 163.42C144.91 163.42 145.826 164.793 145.826 166.166V180.356C145.826 181.73 144.91 183.102 143.079 183.102ZM183.362 142.82C183.362 144.65 181.988 145.566 180.616 145.566H166.425C165.052 145.566 163.679 144.65 163.679 142.82C163.679 141.446 165.053 140.074 166.425 140.074H180.616C181.989 140.074 183.362 141.447 183.362 142.82ZM183.362 131.376C183.362 133.206 181.988 134.58 180.616 134.58H166.425C165.052 134.58 163.679 133.206 163.679 131.376C163.679 130.002 165.053 128.63 166.425 128.63H180.616C181.989 128.63 183.362 130.003 183.362 131.376ZM183.362 119.932C183.362 121.763 181.988 123.136 180.616 123.136H166.425C165.052 123.136 163.679 121.762 163.679 119.932C163.679 118.558 165.053 117.186 166.425 117.186H180.616C181.989 117.186 183.362 118.559 183.362 119.932ZM183.362 108.946C183.362 110.319 181.988 111.692 180.616 111.692H166.425C165.052 111.692 163.679 110.318 163.679 108.946C163.679 107.115 165.053 105.742 166.425 105.742H180.616C181.989 105.742 183.362 107.115 183.362 108.946ZM183.362 97.5019C183.362 98.8756 181.988 100.248 180.616 100.248H166.425C165.052 100.248 163.679 98.8745 163.679 97.5019C163.679 95.6714 165.053 94.2979 166.425 94.2979H180.616C181.989 94.2979 183.362 95.6715 183.362 97.5019ZM183.362 86.058C183.362 87.4316 181.988 88.8042 180.616 88.8042H166.425C165.052 88.8042 163.679 87.4306 163.679 86.058C163.679 84.2275 165.053 83.3118 166.425 83.3118H180.616C181.989 83.3118 183.362 84.2275 183.362 86.058ZM143.079 45.7756C144.91 45.7756 145.826 47.1493 145.826 48.5219V62.712C145.826 64.0856 144.91 65.4582 143.079 65.4582C141.706 65.4582 140.333 64.0846 140.333 62.712V48.5219C140.333 47.1482 141.707 45.7756 143.079 45.7756ZM131.635 45.7756C133.466 45.7756 134.839 47.1493 134.839 48.5219V62.712C134.839 64.0856 133.466 65.4582 131.635 65.4582C130.262 65.4582 128.889 64.0846 128.889 62.712V48.5219C128.889 47.1482 130.263 45.7756 131.635 45.7756ZM120.192 45.7756C122.022 45.7756 123.396 47.1493 123.396 48.5219V62.712C123.396 64.0856 122.022 65.4582 120.192 65.4582C118.818 65.4582 117.445 64.0846 117.445 62.712V48.5219C117.445 47.1482 118.819 45.7756 120.192 45.7756ZM109.205 45.7756C110.579 45.7756 111.952 47.1493 111.952 48.5219V62.712C111.952 64.0856 110.578 65.4582 109.205 65.4582C107.375 65.4582 106.001 64.0846 106.001 62.712V48.5219C106.001 47.1482 107.375 45.7756 109.205 45.7756ZM97.7614 45.7756C99.1351 45.7756 100.508 47.1493 100.508 48.5219V62.712C100.508 64.0856 99.134 65.4582 97.7614 65.4582C95.9309 65.4582 94.5574 64.0846 94.5574 62.712V48.5219C94.5574 47.1482 95.931 45.7756 97.7614 45.7756ZM86.3175 45.7756C87.6911 45.7756 89.0637 47.1493 89.0637 48.5219V62.712C89.0637 64.0856 87.6901 65.4582 86.3175 65.4582C84.487 65.4582 83.5713 64.0846 83.5713 62.712V48.5219C83.5713 47.1482 84.487 45.7756 86.3175 45.7756Z" fill="#E52081"/>
</svg>
