<svg width="144" height="145" viewBox="0 0 144 145" fill="none" xmlns="http://www.w3.org/2000/svg">
<rect x="1.03906" y="1.51953" width="141.961" height="141.961" rx="4.4947" fill="white" stroke="#E52081" stroke-width="2"/>
<path d="M56.9611 17.1831V18.6361H64.3451V17.1831H56.9611ZM57.1989 20.2212V21.661H62.8393V20.2212H57.1989ZM59.8143 15.2941V21.0005H61.373V15.2941H59.8143ZM58.9161 21.3704L57.4895 21.7799C58.6915 24.752 60.6861 26.7862 63.8564 27.7108C64.0677 27.3013 64.5168 26.6673 64.8603 26.3503C61.875 25.6106 59.8672 23.8141 58.9161 21.3704ZM62.6807 20.2212V20.4722C61.875 23.5499 59.3916 25.4917 56.195 26.2446C56.4988 26.5748 56.8819 27.2485 57.0404 27.6712C60.554 26.6409 63.2091 24.501 64.2659 20.5778L63.2487 20.1683L62.9713 20.2212H62.6807ZM52.2322 22.0044L52.6417 23.5235C53.8702 23.2065 55.4421 22.797 56.9083 22.4007L56.7102 20.9477C55.0986 21.3572 53.3946 21.7667 52.2322 22.0044ZM52.4039 17.8039V19.2833H56.7894V17.8039H52.4039ZM53.923 15.2941V25.9408C53.923 26.1257 53.857 26.1918 53.672 26.1918C53.5003 26.1918 52.9455 26.1918 52.4304 26.1786C52.6153 26.588 52.8266 27.2221 52.8663 27.6316C53.8173 27.6316 54.4514 27.5787 54.9005 27.341C55.3496 27.1032 55.4817 26.7069 55.4817 25.954V15.2941H53.923ZM69.2457 20.842C69.1665 22.4668 68.9948 24.1311 68.5192 25.1879C68.823 25.3596 69.3514 25.7294 69.576 25.9276C70.1176 24.7255 70.3817 22.863 70.5138 21.0269L69.2457 20.842ZM69.1269 18.1077V19.5607H74.0671V18.1077H69.1269ZM70.8837 15.4923V27.4863H72.3631V15.4923H70.8837ZM72.6009 21.093C72.8519 22.3479 73.0764 23.9726 73.1293 25.0426L74.3445 24.8048C74.2785 23.7216 74.0407 22.1365 73.7633 20.8684L72.6009 21.093ZM74.5294 16.0074V17.3944H77.6865V16.0074H74.5294ZM74.1992 19.7456V21.159H77.8846V19.7456H74.1992ZM72.4556 16.0867C72.7858 16.6679 73.1557 17.4472 73.301 17.936L74.3974 17.4472C74.2388 16.9585 73.8426 16.2056 73.4859 15.6508L72.4556 16.0867ZM75.3484 20.1419V25.9672C75.3484 26.1257 75.2956 26.1653 75.1239 26.1786C74.9521 26.1786 74.3974 26.1786 73.869 26.1521C74.0671 26.6013 74.252 27.2485 74.2917 27.6844C75.1767 27.6844 75.8107 27.658 76.2731 27.4202C76.7486 27.1693 76.8543 26.7333 76.8543 25.9936V20.1419H75.3484ZM67.6078 15.2941C67.1587 16.1395 66.234 17.1963 65.3754 17.8303C65.6264 18.1209 66.0095 18.6889 66.1944 19.0191C67.2247 18.2266 68.3343 16.9717 69.0344 15.8225L67.6078 15.2941ZM66.8945 20.9609V27.6976H68.3475V19.7853L68.1362 19.7192L66.8945 20.9609ZM67.9116 18.0813C67.304 19.4683 66.2737 20.8288 65.2301 21.7138C65.5075 22.0573 65.9302 22.8366 66.0887 23.1668C67.304 22.0441 68.5589 20.2608 69.325 18.57L67.9116 18.0813ZM78.9017 17.4076V18.9267H90.8825V17.4076H78.9017ZM83.3136 20.6439V22.1497H88.3727V20.6439H83.3136ZM87.7915 20.6439L87.7783 20.8949C87.5934 24.1575 87.3424 25.6634 86.9461 26.0068C86.7744 26.1521 86.5895 26.1653 86.2989 26.1653C85.9158 26.1653 84.978 26.1653 84.0665 26.0861C84.3703 26.522 84.6081 27.1825 84.6345 27.6448C85.5195 27.6712 86.4046 27.6844 86.9065 27.6448C87.5141 27.5787 87.9368 27.4466 88.3331 27.024C88.8615 26.4427 89.1389 24.9501 89.3767 21.3308C89.4163 21.1194 89.4295 20.6439 89.4295 20.6439H87.7915ZM82.7192 18.3058C82.5871 21.3176 82.5078 24.6727 78.6639 26.456C79.0866 26.7862 79.5622 27.3674 79.7999 27.7901C83.9476 25.703 84.3043 21.8459 84.5024 18.3058H82.7192ZM84.0005 15.2281V18.002H85.6384V15.2281H84.0005Z" fill="black"/>
<g clip-path="url(#clip0_190_2770)">
<path d="M33.4696 114.511L33.4511 114.77L32.4735 116.983H31.127L34.5856 109.512L38.0534 116.983H36.6976L35.7384 114.834L35.72 114.539L34.5856 111.91L33.4696 114.511ZM32.9623 114.161H36.2457L36.467 115.175H32.7317L32.9623 114.161Z" fill="#009BB6"/>
<path d="M40.0637 109.909V116.983H38.8555V109.909H40.0637Z" fill="#009BB6"/>
<path d="M42.6007 115.415C42.7759 115.618 42.9788 115.775 43.2002 115.886C43.4215 115.996 43.6613 116.061 43.9196 116.061C44.2424 116.061 44.5098 115.978 44.7035 115.803C44.9064 115.627 45.0079 115.397 45.0079 115.111C45.0079 114.853 44.9433 114.65 44.8234 114.493C44.7035 114.336 44.519 114.198 44.2885 114.087C44.0579 113.976 43.7997 113.866 43.5045 113.755C43.3293 113.691 43.1356 113.617 42.9235 113.506C42.7113 113.405 42.4992 113.266 42.3055 113.109C42.1119 112.953 41.9458 112.759 41.8167 112.528C41.6876 112.298 41.623 112.012 41.623 111.68C41.623 111.302 41.7245 110.97 41.9182 110.684C42.1119 110.398 42.3793 110.177 42.7113 110.011C43.0434 109.845 43.4215 109.771 43.8458 109.771C44.27 109.771 44.6297 109.845 44.9341 110.001C45.2384 110.158 45.5059 110.343 45.718 110.573C45.9302 110.804 46.0962 111.044 46.2161 111.293L45.2569 111.837C45.1647 111.661 45.0448 111.495 44.9156 111.348C44.7773 111.2 44.6205 111.071 44.4453 110.988C44.27 110.905 44.0579 110.85 43.8273 110.85C43.4953 110.85 43.2555 110.924 43.0987 111.08C42.9419 111.228 42.8681 111.412 42.8681 111.615C42.8681 111.8 42.9235 111.957 43.0342 112.104C43.1448 112.252 43.3201 112.39 43.5506 112.51C43.7904 112.639 44.0948 112.768 44.4729 112.907C44.6851 112.98 44.9064 113.073 45.1185 113.192C45.3307 113.303 45.5243 113.451 45.6904 113.617C45.8564 113.783 46.0039 113.986 46.1146 114.216C46.2253 114.447 46.2714 114.723 46.2714 115.028C46.2714 115.36 46.2068 115.655 46.0777 115.913C45.9486 116.171 45.7734 116.393 45.5428 116.577C45.3214 116.753 45.0724 116.891 44.7865 116.992C44.5098 117.094 44.2147 117.14 43.9103 117.14C43.4953 117.14 43.1172 117.057 42.7667 116.891C42.4162 116.725 42.1026 116.504 41.8352 116.227C41.5677 115.95 41.3556 115.655 41.208 115.323L42.0934 114.696C42.2502 114.972 42.4162 115.212 42.5915 115.415H42.6007Z" fill="#009BB6"/>
<path d="M49.0751 114.511L49.0566 114.77L48.079 116.983H46.7324L50.191 109.512L53.6589 116.983H52.3031L51.3439 114.834L51.3255 114.539L50.191 111.91L49.0751 114.511ZM48.5678 114.161H51.8512L52.0725 115.175H48.3372L48.5678 114.161Z" fill="#009BB6"/>
<path d="M58.7033 109.909V116.983H57.4951V109.909H58.7033Z" fill="#009BB6"/>
<path d="M62.9558 113.377C62.8174 113.202 62.5961 113.119 62.3102 113.119C62.0981 113.119 61.9228 113.156 61.766 113.248C61.6092 113.331 61.4893 113.451 61.4063 113.607C61.3233 113.764 61.2772 113.949 61.2772 114.161V116.992H60.1797V112.344H61.2772V113.063C61.4248 112.787 61.6185 112.584 61.849 112.445C62.0796 112.307 62.3563 112.242 62.6699 112.242C63.1956 112.242 63.5922 112.399 63.8689 112.722C64.1456 113.045 64.2839 113.478 64.2839 114.032V116.992H63.1587V114.161C63.1587 113.82 63.0849 113.561 62.9466 113.386L62.9558 113.377Z" fill="#009BB6"/>
<path d="M68.4617 113.377C68.3233 113.202 68.102 113.119 67.816 113.119C67.6039 113.119 67.4287 113.156 67.2719 113.248C67.1151 113.331 66.9952 113.451 66.9122 113.607C66.8292 113.764 66.7831 113.949 66.7831 114.161V116.992H65.6855V112.344H66.7831V113.063C66.9306 112.787 67.1243 112.584 67.3549 112.445C67.5855 112.307 67.8622 112.242 68.1757 112.242C68.7014 112.242 69.098 112.399 69.3747 112.722C69.6514 113.045 69.7898 113.478 69.7898 114.032V116.992H68.6646V114.161C68.6646 113.82 68.5908 113.561 68.4524 113.386L68.4617 113.377Z" fill="#009BB6"/>
<path d="M71.1641 113.395C71.3854 113.036 71.6805 112.75 72.0587 112.538C72.4368 112.335 72.8703 112.233 73.3407 112.233C73.811 112.233 74.2445 112.335 74.6227 112.538C75.0008 112.741 75.2959 113.027 75.5173 113.395C75.7386 113.755 75.8493 114.179 75.8493 114.659C75.8493 115.139 75.7386 115.554 75.5173 115.913C75.2959 116.282 75.0008 116.568 74.6227 116.771C74.2445 116.974 73.8203 117.075 73.3407 117.075C72.8611 117.075 72.446 116.974 72.0587 116.771C71.6805 116.568 71.3762 116.282 71.1641 115.913C70.9427 115.544 70.832 115.129 70.832 114.659C70.832 114.189 70.9427 113.755 71.1641 113.395ZM72.1417 115.425C72.2616 115.646 72.4276 115.812 72.6397 115.941C72.8519 116.07 73.0824 116.125 73.3499 116.125C73.6174 116.125 73.8479 116.061 74.0601 115.941C74.2722 115.821 74.4382 115.646 74.5581 115.425C74.678 115.203 74.7426 114.954 74.7426 114.659C74.7426 114.364 74.678 114.115 74.5581 113.894C74.4382 113.672 74.2722 113.497 74.0601 113.377C73.8479 113.257 73.6174 113.193 73.3499 113.193C73.0824 113.193 72.8519 113.257 72.6397 113.377C72.4276 113.497 72.2616 113.672 72.1417 113.894C72.0218 114.115 71.9572 114.373 71.9572 114.659C71.9572 114.945 72.0218 115.203 72.1417 115.425Z" fill="#009BB6"/>
<path d="M78.8741 112.335V113.294H76.2363V112.335H78.8741ZM78.0994 110.721V116.983H77.0295V110.721H78.0994Z" fill="#009BB6"/>
<path d="M80.3957 116.78C80.036 116.577 79.7593 116.291 79.5656 115.932C79.372 115.572 79.2705 115.148 79.2705 114.659C79.2705 114.17 79.372 113.737 79.5656 113.377C79.7685 113.017 80.0452 112.731 80.4142 112.538C80.7738 112.335 81.2073 112.242 81.6961 112.242C82.185 112.242 82.6092 112.335 82.9505 112.528C83.3009 112.713 83.5592 112.989 83.7436 113.34C83.9281 113.69 84.0203 114.115 84.0203 114.622C84.0203 114.677 84.0203 114.733 84.0203 114.797C84.0203 114.862 84.0203 114.899 84.0203 114.926H79.9346V114.17H83.0796L82.7476 114.631C82.7476 114.631 82.7937 114.539 82.8121 114.474C82.8398 114.41 82.849 114.345 82.849 114.299C82.849 114.05 82.8029 113.838 82.7014 113.654C82.6 113.469 82.4709 113.331 82.2956 113.229C82.1204 113.128 81.9267 113.072 81.6961 113.072C81.4195 113.072 81.1889 113.137 80.9952 113.257C80.8015 113.377 80.6539 113.552 80.5525 113.783C80.451 114.013 80.3957 114.29 80.3957 114.631C80.3957 114.963 80.4418 115.249 80.5433 115.48C80.6447 115.719 80.8015 115.895 80.9952 116.015C81.1889 116.135 81.4287 116.199 81.7146 116.199C82.0189 116.199 82.2772 116.135 82.4985 116.015C82.7199 115.895 82.9044 115.71 83.0427 115.461L83.9927 115.839C83.7436 116.254 83.4301 116.568 83.0427 116.78C82.6553 116.992 82.1942 117.094 81.6593 117.094C81.1889 117.094 80.7738 116.992 80.4142 116.789L80.3957 116.78Z" fill="#009BB6"/>
<path d="M85.9849 115.425C86.114 115.646 86.2893 115.821 86.5014 115.95C86.7227 116.079 86.9625 116.144 87.23 116.144C87.4606 116.144 87.6727 116.107 87.8756 116.033C88.0785 115.959 88.2537 115.867 88.4105 115.747C88.5673 115.627 88.678 115.498 88.7518 115.351V116.55C88.5858 116.707 88.3736 116.836 88.097 116.937C87.8203 117.029 87.5159 117.075 87.1839 117.075C86.7135 117.075 86.2893 116.974 85.9019 116.771C85.5238 116.568 85.2194 116.282 84.998 115.913C84.7767 115.544 84.666 115.129 84.666 114.659C84.666 114.189 84.7767 113.755 84.998 113.395C85.2194 113.036 85.5238 112.75 85.9019 112.538C86.28 112.335 86.7043 112.233 87.1839 112.233C87.5159 112.233 87.8203 112.28 88.097 112.372C88.3736 112.464 88.595 112.593 88.7518 112.75V113.958C88.678 113.801 88.5581 113.663 88.4013 113.552C88.2445 113.432 88.0601 113.34 87.8572 113.276C87.6543 113.211 87.4421 113.174 87.23 113.174C86.9625 113.174 86.7135 113.239 86.5014 113.368C86.28 113.497 86.1048 113.672 85.9849 113.894C85.8558 114.115 85.7912 114.373 85.7912 114.659C85.7912 114.945 85.8558 115.203 85.9849 115.425Z" fill="#009BB6"/>
<path d="M91.0575 116.983H89.96V109.107H91.0575V116.983ZM92.7361 113.377C92.5977 113.202 92.3764 113.119 92.0812 113.119C91.8691 113.119 91.6939 113.165 91.5371 113.248C91.3803 113.34 91.2604 113.46 91.1774 113.607C91.0944 113.764 91.0483 113.949 91.0483 114.152H90.7808C90.7808 113.783 90.8454 113.451 90.9745 113.156C91.1036 112.86 91.2973 112.63 91.5371 112.455C91.7769 112.279 92.0812 112.196 92.4317 112.196C92.7822 112.196 93.0773 112.261 93.3079 112.399C93.5385 112.538 93.7229 112.731 93.8428 112.999C93.9627 113.266 94.0273 113.598 94.0273 113.995V116.974H92.9298V114.142C92.9298 113.801 92.856 113.543 92.7268 113.368L92.7361 113.377Z" fill="#009BB6"/>
<path d="M99.7824 109.909V116.983H98.5742V109.909H99.7824Z" fill="#009BB6"/>
<path d="M104.035 113.377C103.897 113.202 103.675 113.119 103.389 113.119C103.177 113.119 103.002 113.156 102.845 113.248C102.688 113.331 102.568 113.451 102.485 113.607C102.402 113.764 102.356 113.949 102.356 114.161V116.992H101.259V112.344H102.356V113.063C102.504 112.787 102.698 112.584 102.928 112.445C103.159 112.307 103.435 112.242 103.749 112.242C104.275 112.242 104.671 112.399 104.948 112.722C105.225 113.045 105.363 113.478 105.363 114.032V116.992H104.238V114.161C104.238 113.82 104.164 113.561 104.026 113.386L104.035 113.377Z" fill="#009BB6"/>
<path d="M107.677 115.425C107.806 115.646 107.982 115.821 108.194 115.95C108.415 116.079 108.655 116.144 108.922 116.144C109.153 116.144 109.365 116.107 109.568 116.033C109.771 115.959 109.946 115.867 110.103 115.747C110.26 115.627 110.37 115.498 110.444 115.351V116.55C110.278 116.707 110.066 116.836 109.789 116.937C109.513 117.029 109.208 117.075 108.876 117.075C108.406 117.075 107.982 116.974 107.594 116.771C107.216 116.568 106.912 116.282 106.69 115.913C106.469 115.544 106.358 115.129 106.358 114.659C106.358 114.189 106.469 113.755 106.69 113.395C106.912 113.036 107.216 112.75 107.594 112.538C107.972 112.335 108.397 112.233 108.876 112.233C109.208 112.233 109.513 112.28 109.789 112.372C110.066 112.464 110.287 112.593 110.444 112.75V113.958C110.37 113.801 110.25 113.663 110.094 113.552C109.937 113.432 109.752 113.34 109.55 113.276C109.347 113.211 109.135 113.174 108.922 113.174C108.655 113.174 108.406 113.239 108.194 113.368C107.972 113.497 107.797 113.672 107.677 113.894C107.548 114.115 107.484 114.373 107.484 114.659C107.484 114.945 107.548 115.203 107.677 115.425Z" fill="#009BB6"/>
<path d="M112.012 115.969C112.151 115.83 112.317 115.766 112.52 115.766C112.723 115.766 112.889 115.83 113.027 115.969C113.165 116.107 113.23 116.273 113.23 116.467C113.23 116.66 113.165 116.817 113.027 116.965C112.889 117.103 112.723 117.177 112.52 117.177C112.317 117.177 112.151 117.103 112.012 116.965C111.874 116.827 111.81 116.66 111.81 116.467C111.81 116.273 111.883 116.107 112.012 115.969Z" fill="#009BB6"/>
<path d="M64.3202 86.8055C63.8959 86.8055 63.6653 86.5749 63.6284 86.1138V85.4221C63.61 85.1177 63.5362 84.9609 63.3979 84.9609C63.2595 84.9609 63.112 85.0347 62.9367 85.1915C61.7101 86.2706 60.299 86.8055 58.7126 86.8055C57.2093 86.8055 55.8996 86.3536 54.7744 85.4405C53.6492 84.5274 52.9114 83.3377 52.5701 81.8712C52.4687 81.4101 52.6992 81.1795 53.2618 81.1795C53.6861 81.1795 53.9167 81.4101 53.9536 81.8712C54.2764 82.9134 54.8759 83.7619 55.7613 84.4352C56.6374 85.0993 57.6243 85.4313 58.7218 85.4313C60.0868 85.4313 61.2489 84.9517 62.1989 83.9833C63.1581 83.0149 63.6284 81.862 63.6284 80.5154C63.6284 79.1689 63.1488 77.9884 62.1989 77.0384C61.2397 76.0792 60.0868 75.6088 58.7218 75.6088C57.6151 75.6088 56.619 75.9409 55.752 76.6049C54.8851 77.269 54.304 78.1267 54.0089 79.1689C53.9075 79.63 53.6584 79.8606 53.2618 79.8606C52.6992 79.8606 52.4687 79.63 52.5701 79.1689C52.8745 77.7393 53.6031 76.5588 54.7467 75.6273C55.8904 74.6958 57.2093 74.2346 58.7126 74.2346C60.3174 74.2346 61.6363 74.6958 62.6785 75.6181L62.9091 75.821C63.0935 75.9962 63.2595 76.0792 63.3979 76.0792C63.5362 76.0792 63.61 75.9224 63.6284 75.6181V74.9263C63.6653 74.4652 63.8959 74.2346 64.3202 74.2346C64.7444 74.2346 64.975 74.4652 65.0119 74.9263V86.1414C64.975 86.6026 64.7444 86.8332 64.3202 86.8332V86.8055Z" fill="#009BB6"/>
<path d="M68.7471 72.2426C68.7471 71.7261 68.9961 71.4771 69.4941 71.4771C69.9922 71.4771 70.2596 71.7353 70.2596 72.2426C70.2596 72.7498 70.0014 73.0081 69.4941 73.0081C68.9869 73.0081 68.7471 72.7498 68.7471 72.2426ZM69.4665 74.2163C69.9092 74.2163 70.149 74.4561 70.1858 74.9357V86.0954C70.149 86.575 69.9092 86.8148 69.4665 86.8148C69.0238 86.8148 68.7655 86.575 68.7471 86.0954V74.9357C68.7655 74.4561 69.0053 74.2163 69.4665 74.2163Z" fill="#009BB6"/>
<path d="M80.5616 69.7985C81.2625 69.4204 81.2625 69.033 81.1703 68.7102C81.0688 68.3413 80.9213 68.0923 80.7737 68.0277C80.746 68.0185 80.7092 68.0093 80.6723 68.0093C80.5524 68.0093 80.4048 68.0738 80.2941 68.1292C78.0898 69.2913 76.4574 71.0713 75.4336 73.4231C74.4099 75.7658 74.2439 78.2006 74.9356 80.6632L74.9817 80.8384C75.5443 82.849 75.4521 84.8504 74.705 86.778C73.958 88.7148 72.6944 90.2274 70.942 91.288L70.9052 91.3064C70.1673 91.6569 70.1673 92.0351 70.2503 92.3579C70.3241 92.6346 70.4717 92.8375 70.6838 92.9758C70.8498 93.0865 70.9882 93.0865 71.1726 92.9758H71.1911C73.3954 91.8322 75.037 90.0706 76.0608 87.7279C77.0845 85.3853 77.2505 82.9505 76.5588 80.4879L76.485 80.2205C75.9224 78.2006 76.0147 76.2085 76.771 74.2993C77.518 72.381 78.7908 70.8776 80.5339 69.817H80.5524L80.5616 69.7985Z" fill="#009BB6"/>
<path d="M91.9334 86.8055C91.5092 86.8055 91.2786 86.5749 91.2417 86.1138V85.4221C91.2233 85.1177 91.1495 84.9609 91.0112 84.9609C90.8728 84.9609 90.7252 85.0347 90.55 85.1915C89.3234 86.2706 87.9122 86.8055 86.3259 86.8055C84.8225 86.8055 83.5129 86.3536 82.3877 85.4405C81.2625 84.5274 80.5247 83.3377 80.1834 81.8712C80.082 81.4101 80.3125 81.1795 80.8751 81.1795C81.2994 81.1795 81.53 81.4101 81.5668 81.8712C81.8897 82.9134 82.4891 83.7619 83.3745 84.4352C84.2507 85.0993 85.2376 85.4313 86.3351 85.4313C87.7001 85.4313 88.8622 84.9517 89.8122 83.9833C90.7714 83.0149 91.2417 81.862 91.2417 80.5154C91.2417 79.1689 90.7621 77.9884 89.8122 77.0384C88.853 76.0792 87.7001 75.6088 86.3351 75.6088C85.2284 75.6088 84.2323 75.9409 83.3653 76.6049C82.4984 77.269 81.9173 78.1267 81.6222 79.1689C81.5207 79.63 81.2717 79.8606 80.8751 79.8606C80.3125 79.8606 80.082 79.63 80.1834 79.1689C80.4878 77.7393 81.2164 76.5588 82.36 75.6273C83.5037 74.6958 84.8225 74.2346 86.3259 74.2346C87.9307 74.2346 89.2496 74.6958 90.2918 75.6181L90.5223 75.821C90.7068 75.9962 90.8728 76.0792 91.0112 76.0792C91.1495 76.0792 91.2233 75.9224 91.2417 75.6181V74.9263C91.2786 74.4652 91.5092 74.2346 91.9334 74.2346C92.3577 74.2346 92.5883 74.4652 92.6252 74.9263V86.1414C92.5883 86.6026 92.3577 86.8332 91.9334 86.8332V86.8055Z" fill="#009BB6"/>
<path d="M72.9336 101.774C68.193 101.774 66.2839 100.907 63.2772 98.4541C62.9544 98.1959 62.9083 97.7255 63.1665 97.412C63.4248 97.0891 63.8951 97.043 64.2087 97.3013C66.9571 99.5425 68.6081 100.29 72.9336 100.29C77.2592 100.29 79.1868 99.5978 81.6216 97.3382C81.926 97.0615 82.3964 97.0799 82.673 97.3751C82.9497 97.6794 82.9313 98.1498 82.6362 98.4265C79.9062 100.963 77.5451 101.774 72.9428 101.774H72.9336Z" fill="#009BB6"/>
</g>
<line x1="9.92969" y1="39.5316" x2="134.11" y2="39.5316" stroke="#E52081" stroke-width="1.09894"/>
<defs>
<clipPath id="clip0_190_2770">
<rect width="82.1027" height="49.1768" fill="white" transform="translate(31.127 68)"/>
</clipPath>
</defs>
</svg>
