<svg width="245" height="244" viewBox="0 0 245 244" fill="none" xmlns="http://www.w3.org/2000/svg">
<rect x="1" y="1.37207" width="242.424" height="241.578" rx="7" stroke="#E52081" stroke-width="2"/>
<g clip-path="url(#clip0_190_2730)">
<path d="M58.01 191.987L53.7389 203.261C53.7389 203.261 48.9858 205.273 45.9495 206.593C45.0699 206.957 44.2326 207.329 43.4291 207.675C43.852 207.05 44.3087 206.348 44.8246 205.561L45.8396 203.954L44.0296 203.362C42.0421 202.694 39.9362 201.958 38.0586 201.298C40.3252 201.265 41.6361 201.222 42.4396 201.112C42.5834 201.095 42.7356 201.053 42.8625 201.002C43.4884 200.749 43.9451 200.157 44.0212 199.472C44.055 199.083 43.9704 198.693 43.7675 198.381C43.5053 197.898 42.9724 197.002 41.873 195.209C41.3909 194.414 40.7904 193.407 40.1984 192.443C42.2028 193.416 44.5117 194.524 46.2455 195.353L48.2161 196.275L48.3684 194.118C48.5544 191.488 48.8504 188.553 49.1634 186.413C49.8315 188.164 50.6181 190.447 51.2609 192.545L51.7176 194L53.1723 193.501C54.7792 192.925 58.0015 192.012 58.0015 192.012L58.01 191.987Z" fill="#E52081"/>
<path d="M100.704 213.562H100.721L100.053 221.867C92.644 220.37 86.0894 218.07 81.5899 216.243C70.7558 211.837 62.831 206.737 59.5918 203.904C61.9345 204.14 65.5628 204.809 69.1319 205.451C77.0736 206.923 88.4067 209.029 101.042 209.655L100.712 213.562H100.704Z" fill="#E52081"/>
<path d="M206.517 243.849H199.827C192.511 239.239 182.616 233.217 171.181 228.261L166.335 211.583C178.768 216.412 189.289 225.36 195.099 230.968C199.903 235.611 203.743 240.11 206.508 243.849H206.517Z" fill="#E52081"/>
<path d="M171.096 243.848H102.691L104.07 227.086L104.442 222.628L106.979 191.674L155.424 189.982L171.096 243.848Z" fill="#E52081"/>
<path d="M195.886 111.64C195.886 125.933 191.682 139.279 184.426 150.477C180.112 130.187 173.355 107.699 165.168 87.0621C162.842 81.201 160.398 75.4753 157.852 70.0032C157.387 68.9714 156.584 68.1256 155.602 67.5759L155.526 67.5167C155.07 67.263 154.604 67.0938 154.105 66.967L154.012 66.95C153.962 66.9331 153.793 66.8993 153.513 66.857C144.895 65.3093 136.192 64.2605 127.439 63.7023L102.176 62.0785L91.0458 61.3765H90.9951L90.31 61.3258L74.173 60.277L71.5342 60.1079L66.595 51.1006L57.7568 35.0481L86.4956 37.0356L125.959 39.759L125.976 39.7759C126.026 39.8351 126.086 39.9027 126.145 39.9619C131.854 40.1142 137.385 40.943 142.705 42.3723C166.707 48.7832 185.779 67.3729 192.875 91.0879C194.533 96.56 195.531 102.294 195.818 108.24C195.877 109.365 195.894 110.507 195.894 111.648L195.886 111.64Z" fill="#E52081"/>
<path d="M174.69 162.487C161.717 175.385 143.863 183.36 124.157 183.36C123.175 183.36 122.186 183.326 121.205 183.284C110.092 169.075 113.923 155.061 117.001 143.796C118.896 136.903 120.376 131.456 118.016 126.754C115.073 120.859 107.791 121.172 100.738 121.484C98.3779 121.578 94.2506 121.747 92.2969 121.341C92.466 119.539 93.4217 115.979 94.2844 112.773C96.551 104.349 99.8157 92.1367 101.431 73.953V73.936L130.931 75.8474C136.479 76.1942 142.019 76.8454 147.491 77.7842C147.855 77.8434 148.151 77.9111 148.379 77.9534C159.67 102.878 169.582 133.875 174.69 162.487Z" fill="#E52081"/>
<path d="M105.956 181.009C75.2043 172.94 52.4365 144.895 52.4365 111.64C52.4365 98.1668 56.1748 85.5312 62.6786 74.7394C63.3214 73.6737 64.0065 72.6165 64.6915 71.5847L89.5652 73.1832C89.5652 73.1832 89.5483 73.2593 89.5483 73.2931C88.0175 90.259 84.939 101.744 82.8076 109.686C80.355 118.829 78.7311 124.867 83.2136 129.544C87.4339 133.925 94.4537 133.621 101.237 133.325C103.08 133.249 105.601 133.139 107.275 133.249C107.039 135.16 106.193 138.239 105.542 140.658C102.903 150.316 98.784 165.362 105.948 181.009H105.956Z" fill="#E52081"/>
<circle cx="144" cy="139" r="10.6333" stroke="white" stroke-width="0.733333"/>
<path d="M143.055 138.999C143.827 138.999 144.517 138.896 145.123 138.691C145.729 138.485 146.208 138.187 146.56 137.796C146.912 137.395 147.088 136.916 147.088 136.359C147.088 135.84 146.956 135.371 146.692 134.951C146.428 134.53 146.042 134.193 145.534 133.939C145.035 133.684 144.429 133.557 143.715 133.557C143.04 133.557 142.449 133.689 141.94 133.953C141.432 134.217 141.031 134.579 140.738 135.039C140.454 135.488 140.312 136.007 140.312 136.593H142.263C142.263 136.212 142.4 135.899 142.674 135.655C142.957 135.4 143.304 135.273 143.715 135.273C144.008 135.273 144.248 135.322 144.434 135.42C144.619 135.518 144.761 135.66 144.859 135.845C144.957 136.031 145.006 136.246 145.006 136.491C145.006 136.686 144.957 136.877 144.859 137.063C144.771 137.239 144.644 137.4 144.478 137.547C144.311 137.684 144.106 137.791 143.862 137.869C143.627 137.948 143.358 137.987 143.055 137.987V138.999ZM143.627 144.205C144.39 144.205 145.05 144.083 145.607 143.839C146.174 143.584 146.609 143.232 146.912 142.783C147.225 142.333 147.382 141.815 147.382 141.228C147.382 140.71 147.274 140.27 147.059 139.908C146.844 139.536 146.541 139.233 146.15 138.999C145.759 138.754 145.299 138.578 144.771 138.471C144.253 138.363 143.681 138.309 143.055 138.309V139.424C143.417 139.424 143.735 139.463 144.008 139.541C144.292 139.61 144.527 139.712 144.712 139.849C144.908 139.986 145.055 140.157 145.152 140.363C145.25 140.558 145.299 140.773 145.299 141.008C145.299 141.331 145.231 141.6 145.094 141.815C144.957 142.03 144.766 142.196 144.522 142.313C144.287 142.421 144.008 142.475 143.686 142.475C143.373 142.475 143.084 142.416 142.82 142.299C142.556 142.172 142.346 141.991 142.19 141.756C142.033 141.521 141.955 141.238 141.955 140.905H139.872C139.872 141.345 139.96 141.766 140.136 142.167C140.312 142.558 140.562 142.91 140.884 143.223C141.207 143.526 141.598 143.765 142.058 143.941C142.517 144.117 143.04 144.205 143.627 144.205Z" fill="white"/>
<circle cx="58" cy="139" r="10.6333" stroke="white" stroke-width="0.733333"/>
<path d="M52.3792 142.108H61.2965V140.319H59.1992L58.9499 140.539H55.2832L57.7032 137.077V141.257L57.5272 141.419V144H59.6832V133.733H58.2605L52.3792 142.108Z" fill="white"/>
<circle cx="128" cy="101" r="10.6333" stroke="white" stroke-width="0.733333"/>
<circle cx="134" cy="219" r="10.6333" stroke="white" stroke-width="0.733333"/>
<circle cx="82" cy="201" r="10.6333" stroke="white" stroke-width="0.733333"/>
<circle cx="69" cy="101" r="10.6333" stroke="white" stroke-width="0.733333"/>
<path d="M130.959 102.685C130.959 101.981 130.812 101.38 130.519 100.881C130.236 100.373 129.859 99.9818 129.39 99.708C128.92 99.4342 128.407 99.2973 127.85 99.2973C127.547 99.2973 127.253 99.3267 126.97 99.3853C126.686 99.4342 126.412 99.5271 126.148 99.664L126.764 97.552H130.798V95.7333H125.21L123.802 101.512C124.154 101.316 124.486 101.17 124.799 101.072C125.122 100.964 125.435 100.891 125.738 100.852C126.041 100.803 126.329 100.779 126.603 100.779C126.975 100.779 127.317 100.847 127.63 100.984C127.952 101.111 128.207 101.302 128.392 101.556C128.588 101.81 128.686 102.123 128.686 102.495C128.686 102.876 128.603 103.199 128.436 103.463C128.27 103.717 128.031 103.912 127.718 104.049C127.415 104.186 127.043 104.255 126.603 104.255C126.32 104.255 126.021 104.201 125.708 104.093C125.396 103.976 125.092 103.82 124.799 103.624C124.516 103.428 124.252 103.208 124.007 102.964L123.024 104.592C123.308 104.876 123.636 105.14 124.007 105.384C124.379 105.619 124.809 105.809 125.298 105.956C125.796 106.103 126.359 106.176 126.984 106.176C127.483 106.176 127.967 106.108 128.436 105.971C128.906 105.834 129.331 105.624 129.712 105.34C130.094 105.056 130.397 104.695 130.622 104.255C130.847 103.815 130.959 103.292 130.959 102.685Z" fill="white"/>
<path d="M134.909 217.268C134.909 217.649 134.826 217.987 134.66 218.28C134.494 218.573 134.264 218.803 133.971 218.969C133.687 219.136 133.364 219.219 133.003 219.219C132.641 219.219 132.313 219.136 132.02 218.969C131.736 218.803 131.511 218.573 131.345 218.28C131.179 217.987 131.096 217.649 131.096 217.268C131.096 216.877 131.179 216.54 131.345 216.256C131.511 215.963 131.736 215.738 132.02 215.581C132.313 215.415 132.641 215.332 133.003 215.332C133.364 215.332 133.687 215.415 133.971 215.581C134.264 215.738 134.494 215.963 134.66 216.256C134.826 216.54 134.909 216.877 134.909 217.268ZM132.827 223.971L135.951 219.893C136.234 219.522 136.474 219.121 136.669 218.691C136.865 218.251 136.963 217.776 136.963 217.268C136.963 216.466 136.782 215.787 136.42 215.229C136.068 214.672 135.594 214.252 134.997 213.968C134.401 213.675 133.736 213.528 133.003 213.528C132.269 213.528 131.604 213.675 131.008 213.968C130.411 214.252 129.932 214.672 129.571 215.229C129.219 215.787 129.043 216.466 129.043 217.268C129.043 217.767 129.131 218.221 129.307 218.632C129.483 219.043 129.717 219.395 130.011 219.688C130.314 219.981 130.651 220.206 131.023 220.363C131.394 220.519 131.775 220.597 132.167 220.597C132.528 220.597 132.836 220.558 133.091 220.48C133.345 220.392 133.594 220.221 133.839 219.967L133.472 220.099L130.172 223.971H132.827Z" fill="white"/>
<path d="M74.4602 198.403L76.9242 197.757V206H78.9629V195.557L74.4602 196.511V198.403ZM81.782 200.867C81.782 200.348 81.8309 199.879 81.9286 199.459C82.0264 199.028 82.1682 198.662 82.354 198.359C82.5398 198.046 82.7598 197.806 83.014 197.64C83.2682 197.474 83.5518 197.391 83.8646 197.391C84.1873 197.391 84.4758 197.474 84.73 197.64C84.9842 197.806 85.2042 198.046 85.39 198.359C85.5758 198.662 85.7175 199.028 85.8153 199.459C85.9131 199.879 85.962 200.348 85.962 200.867C85.962 201.385 85.9131 201.859 85.8153 202.289C85.7175 202.71 85.5758 203.076 85.39 203.389C85.2042 203.692 84.9842 203.927 84.73 204.093C84.4758 204.26 84.1873 204.343 83.8646 204.343C83.5518 204.343 83.2682 204.26 83.014 204.093C82.7598 203.927 82.5398 203.692 82.354 203.389C82.1682 203.076 82.0264 202.71 81.9286 202.289C81.8309 201.859 81.782 201.385 81.782 200.867ZM79.7433 200.867C79.7433 201.952 79.9144 202.891 80.2566 203.683C80.6086 204.475 81.0926 205.091 81.7086 205.531C82.3344 205.961 83.0531 206.176 83.8646 206.176C84.7055 206.176 85.434 205.961 86.05 205.531C86.666 205.091 87.1451 204.475 87.4873 203.683C87.8295 202.891 88.0006 201.952 88.0006 200.867C88.0006 199.781 87.8295 198.843 87.4873 198.051C87.1451 197.259 86.666 196.648 86.05 196.217C85.434 195.777 84.7055 195.557 83.8646 195.557C83.0531 195.557 82.3344 195.777 81.7086 196.217C81.0926 196.648 80.6086 197.259 80.2566 198.051C79.9144 198.843 79.7433 199.781 79.7433 200.867Z" fill="white"/>
<path d="M66.0959 102.465C66.0959 102.084 66.179 101.747 66.3452 101.453C66.5115 101.15 66.7364 100.92 67.0199 100.764C67.3132 100.598 67.6408 100.515 68.0026 100.515C68.3644 100.515 68.687 100.598 68.9706 100.764C69.2639 100.92 69.4937 101.15 69.6599 101.453C69.8261 101.747 69.9092 102.084 69.9092 102.465C69.9092 102.856 69.8261 103.199 69.6599 103.492C69.4937 103.776 69.2639 104 68.9706 104.167C68.687 104.323 68.3644 104.401 68.0026 104.401C67.6408 104.401 67.3132 104.323 67.0199 104.167C66.7364 104 66.5115 103.776 66.3452 103.492C66.179 103.199 66.0959 102.856 66.0959 102.465ZM68.1786 95.7627L65.0692 99.84C64.7759 100.212 64.5315 100.617 64.3359 101.057C64.1404 101.488 64.0426 101.957 64.0426 102.465C64.0426 103.267 64.2186 103.947 64.5706 104.504C64.9324 105.061 65.4115 105.487 66.0079 105.78C66.6044 106.064 67.2692 106.205 68.0026 106.205C68.7359 106.205 69.4008 106.064 69.9972 105.78C70.5937 105.487 71.0679 105.061 71.4199 104.504C71.7817 103.947 71.9626 103.267 71.9626 102.465C71.9626 101.967 71.8746 101.512 71.6986 101.101C71.5226 100.691 71.2879 100.339 70.9946 100.045C70.7012 99.752 70.3639 99.5271 69.9826 99.3707C69.611 99.2142 69.2297 99.136 68.8386 99.136C68.4768 99.136 68.1688 99.1751 67.9146 99.2533C67.6701 99.3316 67.4208 99.5027 67.1666 99.7667L67.5479 99.6347L70.8332 95.7627H68.1786Z" fill="white"/>
<circle cx="107" cy="161" r="10.6333" stroke="white" stroke-width="0.733333"/>
<path d="M102.693 157.699H107.621L103.5 166H105.759L110.701 155.733H102.693V157.699Z" fill="white"/>
</g>
<circle cx="36" cy="187" r="10.6333" stroke="white" stroke-width="0.733333"/>
<path d="M30.0702 184.403L32.5342 183.757V192H34.5729V181.557L30.0702 182.511V184.403ZM35.808 184.403L38.272 183.757V192H40.3107V181.557L35.808 182.511V184.403Z" fill="white"/>
<circle cx="179" cy="32" r="10.6333" stroke="white" stroke-width="0.733333"/>
<path d="M175.014 37.7334H183.272V35.8121H178.974L181.644 33.2894C182.074 32.8983 182.421 32.4632 182.685 31.9841C182.949 31.505 183.081 30.9916 183.081 30.4441C183.081 30.0725 183.003 29.701 182.846 29.3294C182.7 28.9578 182.47 28.6205 182.157 28.3174C181.854 28.0045 181.468 27.7552 180.998 27.5694C180.539 27.3738 180.001 27.2761 179.385 27.2761C178.554 27.2761 177.85 27.4521 177.273 27.8041C176.706 28.1463 176.276 28.6107 175.982 29.1974C175.689 29.7841 175.542 30.4441 175.542 31.1774H177.596C177.596 30.7667 177.664 30.405 177.801 30.0921C177.948 29.7792 178.148 29.5396 178.402 29.3734C178.666 29.1974 178.979 29.1094 179.341 29.1094C179.595 29.1094 179.82 29.1534 180.016 29.2414C180.211 29.3196 180.377 29.4272 180.514 29.5641C180.651 29.701 180.754 29.8574 180.822 30.0334C180.891 30.2094 180.925 30.3903 180.925 30.5761C180.925 30.8401 180.876 31.0943 180.778 31.3387C180.681 31.5832 180.539 31.8276 180.353 32.0721C180.167 32.3165 179.942 32.5805 179.678 32.8641L175.014 37.7334Z" fill="white"/>
<circle cx="85" cy="37" r="10.6333" stroke="white" stroke-width="0.733333"/>
<path d="M82.7721 35.1361L85.2361 34.4907V42.7334H87.2748V32.2907L82.7721 33.2441V35.1361Z" fill="white"/>
<defs>
<clipPath id="clip0_190_2730">
<rect width="168.458" height="208.8" fill="white" transform="translate(38.0586 35.0481)"/>
</clipPath>
</defs>
</svg>
