<svg width="245" height="245" viewBox="0 0 245 245" fill="none" xmlns="http://www.w3.org/2000/svg">
<rect x="1" y="1.20801" width="242.424" height="241.578" rx="7" stroke="#E52081" stroke-width="2"/>
<g clip-path="url(#clip0_190_2696)">
<path d="M194.592 106.943C194.592 140.697 171.494 169.14 140.294 177.343C147.551 161.443 143.373 146.203 140.7 136.392C140.024 133.939 139.186 130.793 138.933 128.865C140.624 128.755 143.187 128.865 145.047 128.958C151.949 129.237 159.07 129.55 163.358 125.092C167.908 120.365 166.267 114.233 163.781 104.955C161.624 96.895 158.495 85.2404 156.93 68.0293C165.616 68.1223 174.894 68.579 184.595 69.5347C191.074 80.8171 194.592 93.7403 194.592 106.951V106.943Z" fill="#E52081"/>
<path d="M154.156 116.787C152.168 117.193 147.973 117.024 145.58 116.914C138.416 116.601 131.024 116.288 128.039 122.268C125.645 127.038 127.159 132.577 129.071 139.572C132.2 151.006 136.082 165.232 124.8 179.644C123.81 179.694 122.812 179.72 121.814 179.72C103.664 179.72 84.7615 171.677 70.6289 158.052C75.8219 129.152 85.8525 97.9013 97.211 72.74C103.952 71.4714 121.434 68.6381 144.827 68.0884C146.443 86.8642 149.817 99.449 152.134 108.067C153.014 111.323 153.978 114.935 154.156 116.787Z" fill="#E52081"/>
<path d="M175.266 56.6625C168.644 56.2227 162.267 55.9859 156.177 55.9267C152.016 55.8759 147.99 55.9098 144.125 56.0028C126.948 56.4088 112.925 58.0072 103.673 59.3943C96.3822 60.4938 92.0604 61.4579 91.5107 61.5848L91.4346 61.6017C90.9356 61.7116 90.445 61.8977 89.9968 62.1514L89.9376 62.1853C88.9396 62.735 88.1361 63.5808 87.654 64.6126C85.0998 70.1016 82.6471 75.8358 80.2959 81.7138C70.519 106.3 62.738 133.508 58.6107 156.682L58.1879 157.967C53.68 171.516 45.7806 182.147 38.0166 192.347C36.5027 169.3 36.4181 136.206 44.1821 106.232C45.9836 99.314 48.191 92.5564 50.8974 86.1371C54.8387 76.7661 59.8455 68.114 66.1549 60.6629C75.8134 49.2367 88.0008 41.4304 102.522 37.3454C107.935 35.8146 113.644 34.7912 119.691 34.3091C120.52 34.2499 121.332 34.1823 122.161 34.14C123.396 34.0639 124.631 34.03 125.874 34.03C132.09 34.03 138.222 34.935 144.1 36.6942C148.227 37.929 152.253 39.5697 156.101 41.6249C161.48 44.492 166.555 48.1203 171.189 52.5014C172.61 53.8292 173.972 55.2416 175.274 56.6625H175.266Z" fill="#E52081"/>
<path d="M186.194 210.607C182.938 213.567 174.971 218.853 164.035 223.454C156.787 226.524 139.516 230.854 123.777 230.431L120.555 224.114L117.239 217.635C138.831 217.322 173.431 213.694 186.202 210.607H186.194Z" fill="#E52081"/>
<path d="M125.663 244.023H83.0537L102.193 198.107L109.746 212.899L112.173 217.652L118.559 230.127L121.189 235.252L125.663 244.023Z" fill="#E52081"/>
<path d="M93.7433 206.649L86.3767 224.3C72.6839 230.136 61.0294 237.536 53.1723 242.526C52.3858 243.025 51.5908 243.524 50.8211 244.014H46.9053C49.6709 239.786 54.3818 233.84 60.8011 227.649C67.2796 221.374 79.5346 211.047 93.7433 206.649Z" fill="#E52081"/>
<path d="M200.537 211.605C201.053 212.383 201.535 213.085 201.975 213.711C201.146 213.364 200.292 213.026 199.429 212.662C196.646 211.52 192.012 209.617 192.012 209.617L186.979 198.047C186.979 198.047 190.261 198.919 191.902 199.485L193.373 199.967L193.813 198.487C194.439 196.364 195.2 194.039 195.86 192.237C196.207 194.411 196.562 197.379 196.782 200.043L196.968 202.234L198.938 201.253C200.689 200.39 203.015 199.257 205.045 198.225C204.47 199.223 203.861 200.238 203.37 201.067C202.296 202.911 201.78 203.815 201.493 204.281C201.307 204.627 201.23 205.016 201.29 205.405C201.383 206.268 202.042 206.936 202.88 207.046C203.709 207.156 205.036 207.19 207.328 207.19C205.451 207.875 203.328 208.645 201.298 209.364L199.471 209.989L200.537 211.613V211.605Z" fill="#E52081"/>
<circle cx="105" cy="137" r="10.6333" stroke="white" stroke-width="0.733333"/>
<circle cx="189" cy="137" r="10.6333" stroke="white" stroke-width="0.733333"/>
<circle cx="120" cy="96" r="10.6333" stroke="white" stroke-width="0.733333"/>
<circle cx="137" cy="158" r="10.6333" stroke="white" stroke-width="0.733333"/>
<circle cx="104" cy="228" r="10.6333" stroke="white" stroke-width="0.733333"/>
<circle cx="143" cy="214" r="10.6333" stroke="white" stroke-width="0.733333"/>
<circle cx="180" cy="96" r="10.6333" stroke="white" stroke-width="0.733333"/>
<path d="M104.055 136.999C104.827 136.999 105.517 136.896 106.123 136.691C106.729 136.485 107.208 136.187 107.56 135.796C107.912 135.395 108.088 134.916 108.088 134.359C108.088 133.84 107.956 133.371 107.692 132.951C107.428 132.53 107.042 132.193 106.534 131.939C106.035 131.684 105.429 131.557 104.715 131.557C104.04 131.557 103.449 131.689 102.94 131.953C102.432 132.217 102.031 132.579 101.738 133.039C101.454 133.488 101.312 134.007 101.312 134.593H103.263C103.263 134.212 103.4 133.899 103.674 133.655C103.957 133.4 104.304 133.273 104.715 133.273C105.008 133.273 105.248 133.322 105.434 133.42C105.619 133.518 105.761 133.66 105.859 133.845C105.957 134.031 106.006 134.246 106.006 134.491C106.006 134.686 105.957 134.877 105.859 135.063C105.771 135.239 105.644 135.4 105.478 135.547C105.311 135.684 105.106 135.791 104.862 135.869C104.627 135.948 104.358 135.987 104.055 135.987V136.999ZM104.627 142.205C105.39 142.205 106.05 142.083 106.607 141.839C107.174 141.584 107.609 141.232 107.912 140.783C108.225 140.333 108.382 139.815 108.382 139.228C108.382 138.71 108.274 138.27 108.059 137.908C107.844 137.536 107.541 137.233 107.15 136.999C106.759 136.754 106.299 136.578 105.771 136.471C105.253 136.363 104.681 136.309 104.055 136.309V137.424C104.417 137.424 104.735 137.463 105.008 137.541C105.292 137.61 105.527 137.712 105.712 137.849C105.908 137.986 106.055 138.157 106.152 138.363C106.25 138.558 106.299 138.773 106.299 139.008C106.299 139.331 106.231 139.6 106.094 139.815C105.957 140.03 105.766 140.196 105.522 140.313C105.287 140.421 105.008 140.475 104.686 140.475C104.373 140.475 104.084 140.416 103.82 140.299C103.556 140.172 103.346 139.991 103.19 139.756C103.033 139.521 102.955 139.238 102.955 138.905H100.872C100.872 139.345 100.96 139.766 101.136 140.167C101.312 140.558 101.562 140.91 101.884 141.223C102.207 141.526 102.598 141.765 103.058 141.941C103.517 142.117 104.04 142.205 104.627 142.205Z" fill="white"/>
<path d="M183.379 140.108H192.297V138.319H190.199L189.95 138.539H186.283L188.703 135.077V139.257L188.527 139.419V142H190.683V131.733H189.261L183.379 140.108Z" fill="white"/>
<path d="M122.959 97.6853C122.959 96.9813 122.812 96.38 122.519 95.8813C122.236 95.3729 121.859 94.9818 121.39 94.708C120.92 94.4342 120.407 94.2973 119.85 94.2973C119.547 94.2973 119.253 94.3267 118.97 94.3853C118.686 94.4342 118.412 94.5271 118.148 94.664L118.764 92.552H122.798V90.7333H117.21L115.802 96.512C116.154 96.3164 116.486 96.1698 116.799 96.072C117.122 95.9644 117.435 95.8911 117.738 95.852C118.041 95.8031 118.329 95.7787 118.603 95.7787C118.975 95.7787 119.317 95.8471 119.63 95.984C119.952 96.1111 120.207 96.3018 120.392 96.556C120.588 96.8102 120.686 97.1231 120.686 97.4947C120.686 97.876 120.603 98.1987 120.436 98.4627C120.27 98.7169 120.031 98.9124 119.718 99.0493C119.415 99.1862 119.043 99.2547 118.603 99.2547C118.32 99.2547 118.021 99.2009 117.708 99.0933C117.396 98.976 117.092 98.8196 116.799 98.624C116.516 98.4284 116.252 98.2084 116.007 97.964L115.024 99.592C115.308 99.8756 115.636 100.14 116.007 100.384C116.379 100.619 116.809 100.809 117.298 100.956C117.796 101.103 118.359 101.176 118.984 101.176C119.483 101.176 119.967 101.108 120.436 100.971C120.906 100.834 121.331 100.624 121.712 100.34C122.094 100.056 122.397 99.6947 122.622 99.2547C122.847 98.8147 122.959 98.2916 122.959 97.6853Z" fill="white"/>
<path d="M132.693 154.699H137.621L133.5 163H135.759L140.701 152.733H132.693V154.699Z" fill="white"/>
<path d="M100.233 225.212C100.233 225.662 100.321 226.058 100.497 226.4C100.682 226.732 100.927 227.011 101.23 227.236C101.543 227.461 101.895 227.632 102.286 227.749C102.677 227.867 103.083 227.925 103.503 227.925C103.924 227.925 104.329 227.867 104.721 227.749C105.112 227.632 105.459 227.461 105.762 227.236C106.075 227.011 106.319 226.732 106.495 226.4C106.681 226.058 106.774 225.662 106.774 225.212C106.774 224.664 106.622 224.19 106.319 223.789C106.026 223.388 105.63 223.08 105.131 222.865C104.642 222.64 104.1 222.528 103.503 222.528C102.897 222.528 102.345 222.64 101.846 222.865C101.357 223.08 100.966 223.388 100.673 223.789C100.379 224.19 100.233 224.664 100.233 225.212ZM102.198 225.417C102.198 225.163 102.252 224.933 102.359 224.728C102.477 224.523 102.633 224.366 102.829 224.259C103.024 224.151 103.249 224.097 103.503 224.097C103.757 224.097 103.982 224.151 104.178 224.259C104.373 224.366 104.525 224.523 104.633 224.728C104.74 224.933 104.794 225.163 104.794 225.417C104.794 225.681 104.735 225.911 104.618 226.107C104.51 226.302 104.359 226.459 104.163 226.576C103.968 226.684 103.748 226.737 103.503 226.737C103.259 226.737 103.039 226.684 102.843 226.576C102.648 226.459 102.491 226.302 102.374 226.107C102.257 225.911 102.198 225.681 102.198 225.417ZM99.8659 230.213C99.8659 230.663 99.9588 231.074 100.145 231.445C100.34 231.807 100.609 232.12 100.951 232.384C101.293 232.648 101.68 232.853 102.11 233C102.55 233.137 103.014 233.205 103.503 233.205C103.992 233.205 104.452 233.137 104.882 233C105.322 232.853 105.708 232.648 106.041 232.384C106.383 232.12 106.652 231.807 106.847 231.445C107.043 231.074 107.141 230.663 107.141 230.213C107.141 229.695 107.033 229.25 106.818 228.879C106.603 228.497 106.314 228.184 105.953 227.94C105.601 227.696 105.209 227.515 104.779 227.397C104.349 227.28 103.924 227.221 103.503 227.221C103.083 227.221 102.657 227.28 102.227 227.397C101.797 227.515 101.401 227.696 101.039 227.94C100.687 228.184 100.404 228.497 100.189 228.879C99.9734 229.25 99.8659 229.695 99.8659 230.213ZM101.934 229.905C101.934 229.622 102.002 229.363 102.139 229.128C102.286 228.893 102.477 228.708 102.711 228.571C102.956 228.434 103.22 228.365 103.503 228.365C103.777 228.365 104.031 228.434 104.266 228.571C104.51 228.708 104.706 228.893 104.853 229.128C104.999 229.363 105.073 229.622 105.073 229.905C105.073 230.248 104.999 230.536 104.853 230.771C104.706 230.996 104.51 231.172 104.266 231.299C104.031 231.416 103.777 231.475 103.503 231.475C103.22 231.475 102.956 231.416 102.711 231.299C102.477 231.172 102.286 230.996 102.139 230.771C102.002 230.536 101.934 230.248 101.934 229.905Z" fill="white"/>
<path d="M135.46 211.403L137.924 210.757V219H139.963V208.557L135.46 209.511V211.403ZM142.782 213.867C142.782 213.348 142.831 212.879 142.929 212.459C143.026 212.028 143.168 211.662 143.354 211.359C143.54 211.046 143.76 210.806 144.014 210.64C144.268 210.474 144.552 210.391 144.865 210.391C145.187 210.391 145.476 210.474 145.73 210.64C145.984 210.806 146.204 211.046 146.39 211.359C146.576 211.662 146.718 212.028 146.815 212.459C146.913 212.879 146.962 213.348 146.962 213.867C146.962 214.385 146.913 214.859 146.815 215.289C146.718 215.71 146.576 216.076 146.39 216.389C146.204 216.692 145.984 216.927 145.73 217.093C145.476 217.26 145.187 217.343 144.865 217.343C144.552 217.343 144.268 217.26 144.014 217.093C143.76 216.927 143.54 216.692 143.354 216.389C143.168 216.076 143.026 215.71 142.929 215.289C142.831 214.859 142.782 214.385 142.782 213.867ZM140.743 213.867C140.743 214.952 140.914 215.891 141.257 216.683C141.609 217.475 142.093 218.091 142.709 218.531C143.334 218.961 144.053 219.176 144.865 219.176C145.706 219.176 146.434 218.961 147.05 218.531C147.666 218.091 148.145 217.475 148.487 216.683C148.83 215.891 149.001 214.952 149.001 213.867C149.001 212.781 148.83 211.843 148.487 211.051C148.145 210.259 147.666 209.648 147.05 209.217C146.434 208.777 145.706 208.557 144.865 208.557C144.053 208.557 143.334 208.777 142.709 209.217C142.093 209.648 141.609 210.259 141.257 211.051C140.914 211.843 140.743 212.781 140.743 213.867Z" fill="white"/>
<path d="M177.096 97.4653C177.096 97.084 177.179 96.7467 177.345 96.4533C177.511 96.1502 177.736 95.9204 178.02 95.764C178.313 95.5978 178.641 95.5147 179.003 95.5147C179.364 95.5147 179.687 95.5978 179.971 95.764C180.264 95.9204 180.494 96.1502 180.66 96.4533C180.826 96.7467 180.909 97.084 180.909 97.4653C180.909 97.8564 180.826 98.1987 180.66 98.492C180.494 98.7756 180.264 99.0004 179.971 99.1667C179.687 99.3231 179.364 99.4013 179.003 99.4013C178.641 99.4013 178.313 99.3231 178.02 99.1667C177.736 99.0004 177.511 98.7756 177.345 98.492C177.179 98.1987 177.096 97.8564 177.096 97.4653ZM179.179 90.7627L176.069 94.84C175.776 95.2116 175.531 95.6173 175.336 96.0573C175.14 96.4876 175.043 96.9569 175.043 97.4653C175.043 98.2671 175.219 98.9467 175.571 99.504C175.932 100.061 176.411 100.487 177.008 100.78C177.604 101.064 178.269 101.205 179.003 101.205C179.736 101.205 180.401 101.064 180.997 100.78C181.594 100.487 182.068 100.061 182.42 99.504C182.782 98.9467 182.963 98.2671 182.963 97.4653C182.963 96.9667 182.875 96.512 182.699 96.1013C182.523 95.6907 182.288 95.3387 181.995 95.0453C181.701 94.752 181.364 94.5271 180.983 94.3707C180.611 94.2142 180.23 94.136 179.839 94.136C179.477 94.136 179.169 94.1751 178.915 94.2533C178.67 94.3316 178.421 94.5027 178.167 94.7667L178.548 94.6347L181.833 90.7627H179.179Z" fill="white"/>
</g>
<circle cx="211" cy="196" r="10.6333" stroke="white" stroke-width="0.733333"/>
<path d="M205.07 193.403L207.534 192.757V201H209.573V190.557L205.07 191.511V193.403ZM210.808 193.403L213.272 192.757V201H215.311V190.557L210.808 191.511V193.403Z" fill="white"/>
<circle cx="160" cy="35" r="10.6333" stroke="white" stroke-width="0.733333"/>
<path d="M157.772 33.1361L160.236 32.4907V40.7334H162.275V30.2907L157.772 31.2441V33.1361Z" fill="white"/>
<circle cx="65" cy="28" r="10.6333" stroke="white" stroke-width="0.733333"/>
<path d="M61.0144 33.7334H69.2717V31.8121H64.9744L67.6437 29.2894C68.0739 28.8983 68.421 28.4632 68.685 27.9841C68.949 27.505 69.081 26.9916 69.081 26.4441C69.081 26.0725 69.0028 25.701 68.8464 25.3294C68.6997 24.9578 68.4699 24.6205 68.157 24.3174C67.8539 24.0045 67.4677 23.7552 66.9984 23.5694C66.5388 23.3738 66.001 23.2761 65.385 23.2761C64.5539 23.2761 63.8499 23.4521 63.273 23.8041C62.7059 24.1463 62.2757 24.6107 61.9824 25.1974C61.689 25.7841 61.5424 26.4441 61.5424 27.1774H63.5957C63.5957 26.7667 63.6641 26.405 63.801 26.0921C63.9477 25.7792 64.1481 25.5396 64.4024 25.3734C64.6664 25.1974 64.9793 25.1094 65.341 25.1094C65.5953 25.1094 65.8201 25.1534 66.0157 25.2414C66.2113 25.3196 66.3775 25.4272 66.5144 25.5641C66.6513 25.701 66.7539 25.8574 66.8224 26.0334C66.8908 26.2094 66.925 26.3903 66.925 26.5761C66.925 26.8401 66.8761 27.0943 66.7784 27.3387C66.6806 27.5832 66.5388 27.8276 66.353 28.0721C66.1673 28.3165 65.9424 28.5805 65.6784 28.8641L61.0144 33.7334Z" fill="white"/>
<defs>
<clipPath id="clip0_190_2696">
<rect width="170.124" height="209.984" fill="white" transform="translate(37.2129 34.0383)"/>
</clipPath>
</defs>
</svg>
