<svg width="138" height="138" viewBox="0 0 138 138" fill="none" xmlns="http://www.w3.org/2000/svg">
<path d="M50.7168 134.835C50.1968 134.682 49.6768 134.559 49.1568 134.406C48.7591 134.284 48.3615 134.162 47.9944 134.039L47.2297 133.795C46.6485 133.611 46.0673 133.428 45.4861 133.213C45.0885 133.061 44.6908 132.908 44.2932 132.785L43.712 132.541C43.1002 132.296 42.4884 132.082 41.9072 131.837C41.479 131.653 41.0508 131.47 40.6531 131.286L40.0413 131.011C39.4908 130.766 38.9707 130.522 38.4201 130.246C37.9919 130.032 37.5637 129.818 36.8295 129.421C36.2178 129.115 35.606 128.778 35.0248 128.442C34.5048 128.136 33.9848 127.83 33.4648 127.524C32.8836 127.188 32.2718 126.82 31.7212 126.453C31.2012 126.117 30.7118 125.78 30.2224 125.475C29.6412 125.077 29.0906 124.71 28.54 124.282C28.0506 123.945 27.5612 123.578 27.0718 123.211C26.5212 122.783 25.9706 122.385 25.4506 121.926C24.9611 121.529 24.5023 121.162 24.0435 120.764C23.5235 120.336 23.0035 119.846 22.5141 119.418C22.0552 118.99 21.5964 118.562 21.1682 118.133C20.6787 117.644 20.1893 117.185 19.7305 116.696C19.3022 116.237 18.8434 115.778 18.4152 115.35C17.9563 114.86 17.4975 114.34 17.0693 113.82C17.0081 113.759 16.9469 113.698 16.8857 113.637C23.187 111.404 30.1612 109.599 37.6554 108.253C40.8061 119.387 45.3332 128.564 50.7168 134.835Z" fill="#FF7700"/>
<path d="M92.1638 107.121C86.6272 125.719 77.6954 137.19 68.5799 137.19C59.4645 137.19 50.5326 125.75 44.9961 107.121C60.5657 105.041 76.5942 105.041 92.1638 107.121Z" fill="#FF7700"/>
<path d="M120.274 113.576C120.213 113.667 120.152 113.729 120.121 113.79C119.662 114.31 119.203 114.799 118.745 115.319C118.316 115.778 117.888 116.237 117.429 116.665C116.94 117.155 116.481 117.644 115.992 118.103C115.533 118.531 115.074 118.959 114.646 119.387C114.126 119.846 113.636 120.305 113.116 120.733C112.627 121.131 112.168 121.529 111.709 121.926C111.189 122.355 110.639 122.783 110.119 123.18C109.629 123.548 109.14 123.915 108.65 124.282C108.1 124.679 107.549 125.046 106.937 125.475C106.448 125.811 105.959 126.148 105.439 126.453C104.857 126.821 104.307 127.188 103.481 127.677C103.053 127.952 102.594 128.197 102.166 128.442C101.584 128.778 100.973 129.084 100.086 129.543C99.6573 129.757 99.1985 130.002 98.7703 130.216C98.1585 130.522 97.5161 130.797 96.9044 131.072L96.5373 131.225C96.1091 131.409 95.6808 131.623 95.2526 131.776C94.6408 132.021 94.029 132.265 93.3255 132.541L92.9278 132.694C92.4996 132.846 92.1019 133.03 91.6737 133.183C91.0925 133.366 90.5113 133.581 89.6854 133.825L89.196 133.978C88.7984 134.101 88.4007 134.223 88.0031 134.345C87.4831 134.498 86.9936 134.621 86.4736 134.743C91.8572 128.472 96.3843 119.296 99.5656 108.131C107.029 109.569 113.973 111.343 120.274 113.576Z" fill="#FF7700"/>
<path d="M124.894 29.5178C132.939 41.0192 137.16 54.5087 137.16 68.5795C137.16 82.6503 132.939 96.1399 124.894 107.641C117.705 104.919 109.814 102.778 101.279 101.218C103.512 91.0316 104.675 80.0503 104.675 68.5795C104.675 57.1088 103.543 46.1275 101.279 35.9414C109.814 34.3814 117.736 32.2402 124.894 29.5178Z" fill="#FF7700"/>
<path d="M35.8499 35.9414C33.6169 46.1275 32.4851 57.1088 32.4851 68.5795C32.4851 80.0503 33.6169 91.0316 35.8805 101.218C27.3768 102.778 19.4544 104.919 12.266 107.641C4.22123 96.1399 0 82.6503 0 68.5795C0 54.5087 4.22123 41.0192 12.266 29.5178C19.4238 32.2402 27.3462 34.3814 35.8499 35.9414Z" fill="#FF7700"/>
<path d="M94.0289 37.0735C96.2618 46.8619 97.4548 57.7208 97.4548 68.5798C97.4548 79.4388 96.2618 90.2671 94.0289 100.086C85.617 98.9237 77.0522 98.3425 68.5485 98.3425C60.0449 98.3425 51.5107 98.9237 43.0988 100.086C40.8658 90.2977 39.6729 79.4388 39.6729 68.5798C39.6729 57.7208 40.8352 46.8924 43.0988 37.0735C59.9531 39.3982 77.2051 39.3982 94.0289 37.0735Z" fill="#FF7700"/>
<path d="M120.122 23.3697C120.183 23.4309 120.214 23.492 120.275 23.5532C113.973 25.7862 106.999 27.5909 99.505 28.9368C96.3238 17.772 91.7967 8.59538 86.4131 2.32471C86.9331 2.44706 87.4225 2.56942 87.9425 2.72236L89.9002 3.33413C90.4814 3.51766 91.0626 3.7012 91.6437 3.91532C92.0414 4.06826 92.4085 4.2212 92.8061 4.34356L93.4791 4.61885C94.0602 4.83298 94.6414 5.07769 95.2226 5.29181C95.6509 5.47534 96.1097 5.68946 96.5685 5.87299L96.9662 6.05652C97.5779 6.33182 98.1591 6.57653 98.7403 6.88242C99.1991 7.09654 99.658 7.34124 100.3 7.67772C100.912 8.01419 101.524 8.32008 102.136 8.65656C102.564 8.90127 103.023 9.14598 103.634 9.54363C104.246 9.91069 104.858 10.2778 105.439 10.6448C105.929 10.9507 106.418 11.2872 106.907 11.6237C107.489 12.0213 108.07 12.3884 108.62 12.8166C109.11 13.1531 109.599 13.5202 110.058 13.8872C110.609 14.3155 111.159 14.7437 111.71 15.1719C112.169 15.539 112.628 15.9367 113.086 16.3343C113.606 16.7625 114.126 17.252 114.646 17.7108C115.075 18.1084 115.533 18.5367 115.962 18.9649C116.451 19.4543 116.941 19.9438 117.43 20.4332C117.858 20.8614 118.286 21.3203 118.715 21.7791C119.204 22.3297 119.663 22.8497 120.122 23.3697Z" fill="#FF7700"/>
<path d="M68.5799 0C77.6954 0 86.6272 11.4707 92.1638 30.0686C76.5942 32.1487 60.5657 32.1487 44.9961 30.0686C50.502 11.4402 59.4645 0 68.5799 0Z" fill="#FF7700"/>
<path d="M49.187 2.75295C49.707 2.60001 50.1965 2.44706 50.7471 2.32471C45.3635 8.59538 40.8057 17.772 37.6551 28.9368C30.1609 27.5909 23.1867 25.7862 16.916 23.5532C16.9772 23.492 17.0078 23.4309 17.069 23.3697C17.5278 22.8497 17.9866 22.3297 18.476 21.8097C18.9043 21.3508 19.3325 20.9226 19.7608 20.4638C20.2502 19.9744 20.7396 19.4849 21.229 18.9955C21.6573 18.5673 22.1161 18.1696 22.5749 17.7414C23.0949 17.2826 23.5843 16.8237 24.1349 16.3649C24.5938 15.9672 25.0526 15.6002 25.542 15.2025C26.062 14.7743 26.6126 14.346 27.1632 13.9178C27.6526 13.5507 28.142 13.1837 28.6315 12.8472C29.1821 12.4495 29.7327 12.0519 30.3444 11.6542C30.8338 11.3178 31.3233 10.9813 31.8433 10.6754C32.4245 10.3083 33.0056 9.94128 33.7704 9.48245C34.2292 9.20715 34.688 8.96244 35.1163 8.68714C35.728 8.35067 36.3398 8.01419 37.1351 7.61654C37.5939 7.37183 38.0528 7.12712 38.5422 6.913C39.1234 6.60712 39.7046 6.36241 40.2857 6.08711L40.6834 5.90358C41.1422 5.72005 41.5705 5.50593 42.0293 5.32239C42.6411 5.07769 43.2528 4.83298 43.987 4.55768L44.4152 4.37415C44.8129 4.22121 45.2105 4.06826 45.6387 3.94591C46.2199 3.73179 46.7705 3.54825 47.6576 3.27296L48.1776 3.08942C48.4223 2.99766 48.7894 2.84472 49.187 2.75295Z" fill="#FF7700"/>
</svg>
