<svg width="126" height="123" viewBox="0 0 126 123" fill="none" xmlns="http://www.w3.org/2000/svg">
<path d="M122.688 116.382H112.01V16.5779C112.033 15.0198 110.951 13.6626 109.424 13.3346L52.9226 0.0976986C51.9407 -0.156212 50.8976 0.0919269 50.1367 0.759028C49.3283 1.36957 48.8599 2.32867 48.8773 3.34086V19.8867H80.4425H80.4414C81.3214 19.8867 82.1645 20.2352 82.7867 20.8561C83.4089 21.4759 83.7581 22.3184 83.7581 23.1956V116.381H77.1271L77.1259 29.8139C77.1259 28.9368 76.7767 28.0954 76.1545 27.4745C75.5335 26.8535 74.6904 26.505 73.8103 26.505H17.3085C15.4767 26.505 13.993 27.9869 13.993 29.8139V116.381H3.31551C1.48483 116.381 0 117.863 0 119.691C0 120.568 0.349256 121.41 0.971413 122.031C1.5936 122.651 2.43664 123 3.31557 123H122.684C123.563 123 124.406 122.651 125.029 122.031C125.651 121.41 126 120.568 126 119.691C126 118.813 125.651 117.971 125.029 117.35C124.406 116.73 123.563 116.381 122.684 116.381L122.688 116.382ZM55.1105 41.5296H60.7471C62.5789 41.5296 64.0638 43.0115 64.0638 44.8397C64.0638 46.6667 62.5789 48.1485 60.7471 48.1485H55.1105C53.2799 48.1485 51.795 46.6666 51.795 44.8397C51.795 43.0115 53.2799 41.5296 55.1105 41.5296ZM55.1105 56.8174H60.7471V56.8185C61.6272 56.8185 62.4702 57.1671 63.0924 57.788C63.7134 58.4078 64.0638 59.2503 64.0638 60.1274C64.0638 61.0046 63.7134 61.8471 63.0924 62.4669C62.4702 63.0878 61.6272 63.4364 60.7471 63.4364H55.1105C53.2799 63.4364 51.795 61.9545 51.795 60.1275C51.795 59.2503 52.1443 58.4078 52.7664 57.788C53.3875 57.1671 54.2317 56.8186 55.1106 56.8186L55.1105 56.8174ZM55.1105 72.0395H60.7471V72.0407C61.6272 72.0407 62.4702 72.3892 63.0924 73.0101C63.7134 73.6299 64.0638 74.4724 64.0638 75.3496C64.0638 76.2279 63.7134 77.0693 63.0924 77.6902C62.4702 78.31 61.6272 78.6585 60.7471 78.6585H55.1105C53.2799 78.6585 51.795 77.1778 51.795 75.3497C51.795 73.5226 53.2799 72.0408 55.1105 72.0408V72.0395ZM55.1105 87.3273H60.7471V87.3284C61.6272 87.3284 62.4702 87.677 63.0924 88.2979C63.7134 88.9188 64.0638 89.7602 64.0638 90.6385C64.0638 91.5157 63.7134 92.357 63.0924 92.978C62.4702 93.5989 61.6272 93.9474 60.7471 93.9474H55.1105C53.2799 93.9474 51.795 92.4655 51.795 90.6386C51.7892 89.7568 52.1362 88.9096 52.7595 88.2853C53.3817 87.6609 54.2282 87.3089 55.1106 87.3089L55.1105 87.3273ZM55.1105 102.615H60.7471V102.617C62.5789 102.617 64.0638 104.099 64.0638 105.926C64.0638 107.754 62.5789 109.235 60.7471 109.235H55.1105C53.2799 109.235 51.795 107.754 51.795 105.926C51.795 104.099 53.2799 102.617 55.1105 102.617V102.615ZM30.3749 41.5284H36.0115C37.8433 41.5284 39.327 43.0103 39.327 44.8385C39.327 46.6655 37.8433 48.1474 36.0115 48.1474H30.3749C28.5431 48.1474 27.0594 46.6654 27.0594 44.8385C27.0594 43.0103 28.5432 41.5284 30.3749 41.5284ZM30.3749 56.8162H36.0115V56.8173C36.8904 56.8173 37.7346 57.1659 38.3557 57.7868C38.9779 58.4066 39.3271 59.2491 39.3271 60.1263C39.2993 61.9417 37.8306 63.4074 36.0116 63.4351H30.375C28.5432 63.4351 27.0595 61.9532 27.0595 60.1263C27.0595 59.2491 27.4087 58.4066 28.0297 57.7868C28.6519 57.1659 29.495 56.8173 30.3751 56.8173L30.3749 56.8162ZM30.3749 72.0383H36.0115V72.0395C37.8306 72.0672 39.2992 73.533 39.327 75.3484C39.327 76.2267 38.9778 77.068 38.3556 77.689C37.7346 78.3088 36.8904 78.6573 36.0114 78.6573H30.3749C28.5431 78.6573 27.0594 77.1765 27.0594 75.3484C27.0594 73.5214 28.5431 72.0395 30.3749 72.0395L30.3749 72.0383ZM30.3749 87.3261H36.0115V87.3272C37.8306 87.3561 39.2992 88.8207 39.327 90.6373C39.327 91.5145 38.9778 92.3558 38.3556 92.9767C37.7346 93.5977 36.8904 93.9462 36.0114 93.9462H30.3749C28.5431 93.9462 27.0594 92.4643 27.0594 90.6374C27.0536 89.7556 27.4005 88.9084 28.0227 88.2841C28.6449 87.6597 29.4914 87.3077 30.3749 87.3077V87.3261ZM30.3749 102.614H36.0115V102.616C37.8433 102.616 39.327 104.098 39.327 105.925C39.327 107.753 37.8433 109.234 36.0115 109.234H30.3749C28.5431 109.234 27.0594 107.753 27.0594 105.925C27.0594 104.098 28.5432 102.616 30.3749 102.616V102.614ZM95.1722 26.5031H100.809V26.5054C102.639 26.5054 104.124 27.9873 104.124 29.8142C104.124 31.6424 102.639 33.1243 100.809 33.1243H95.1722C93.3404 33.1243 91.8555 31.6424 91.8555 29.8142C91.8555 27.9872 93.3404 26.5054 95.1722 26.5054V26.5031ZM95.1722 41.7908H100.809V41.7943C102.639 41.7943 104.124 43.275 104.124 45.1031C104.124 46.9301 102.639 48.412 100.809 48.412H95.1722C93.3404 48.412 91.8555 46.9301 91.8555 45.1031C91.8555 43.275 93.3404 41.7943 95.1722 41.7943V41.7908ZM95.1722 57.0785H100.809V57.082C101.688 57.082 102.532 57.4306 103.153 58.0515C103.775 58.6724 104.124 59.5138 104.124 60.3909C104.124 61.2693 103.775 62.1106 103.153 62.7316C102.532 63.3513 101.688 63.701 100.809 63.701H95.1722C93.352 63.6722 91.8846 62.2076 91.8555 60.391C91.8555 58.564 93.3404 57.0821 95.1722 57.0821V57.0785ZM95.1722 72.3007H100.809V72.3042C101.688 72.3042 102.532 72.6527 103.153 73.2736C103.775 73.8946 104.124 74.7359 104.124 75.6131C104.124 76.4914 103.775 77.3328 103.153 77.9537C102.532 78.5747 101.688 78.9232 100.809 78.9232H95.1722C93.3404 78.9232 91.8555 77.4413 91.8555 75.6131C91.8845 73.7977 93.352 72.3329 95.1722 72.3043V72.3007ZM95.1722 87.5885H100.809V87.5931C101.688 87.5931 102.532 87.9416 103.153 88.5625C103.775 89.1823 104.124 90.0248 104.124 90.902C104.124 91.7792 103.775 92.6217 103.153 93.2415C102.532 93.8624 101.688 94.2109 100.809 94.2109H95.1722C93.3404 94.2109 91.8555 92.729 91.8555 90.9021C91.8845 89.0866 93.352 87.621 95.1722 87.5932V87.5885ZM95.1722 102.876H100.809V102.881C102.639 102.881 104.124 104.363 104.124 106.19C104.124 108.018 102.639 109.5 100.809 109.5H95.1722C93.3404 109.5 91.8555 108.018 91.8555 106.19C91.8555 104.363 93.3404 102.881 95.1722 102.881V102.876Z" fill="#FF7700"/>
</svg>
