<svg width="138" height="138" viewBox="0 0 138 138" fill="none" xmlns="http://www.w3.org/2000/svg">
<path fill-rule="evenodd" clip-rule="evenodd" d="M35.2455 26.0922H102.078C107.113 26.0922 111.232 30.2121 111.232 35.2467V102.079C111.232 107.115 107.112 111.234 102.078 111.234H35.2455C30.2099 111.234 26.091 107.114 26.091 102.079V35.2467C26.091 30.2111 30.2109 26.0922 35.2455 26.0922ZM0 40.2823C0 38.4518 1.37363 37.5361 2.74622 37.5361H16.9364C18.31 37.5361 19.6826 38.4519 19.6826 40.2823C19.6826 41.656 18.309 43.0286 16.9364 43.0286H2.74622C1.3726 43.0286 0 41.6549 0 40.2823ZM0 51.7263C0 49.8958 1.37363 48.5222 2.74622 48.5222H16.9364C18.31 48.5222 19.6826 49.8959 19.6826 51.7263C19.6826 53.0999 18.309 54.4725 16.9364 54.4725H2.74622C1.3726 54.4725 0 53.0989 0 51.7263ZM0 63.1702C0 61.3397 1.37363 59.9662 2.74622 59.9662H16.9364C18.31 59.9662 19.6826 61.3398 19.6826 63.1702C19.6826 64.5439 18.309 65.9165 16.9364 65.9165H2.74622C1.3726 65.9165 0 64.5428 0 63.1702ZM0 74.1563C0 72.7827 1.37363 71.4101 2.74622 71.4101H16.9364C18.31 71.4101 19.6826 72.7838 19.6826 74.1563C19.6826 75.9869 18.309 77.3604 16.9364 77.3604H2.74622C1.3726 77.3604 0 75.9868 0 74.1563ZM0 85.6003C0 84.2267 1.37363 82.8541 2.74622 82.8541H16.9364C18.31 82.8541 19.6826 84.2277 19.6826 85.6003C19.6826 87.4308 18.309 88.8043 16.9364 88.8043H2.74622C1.3726 88.8043 0 87.4307 0 85.6003ZM0 97.0442C0 95.6706 1.37363 94.298 2.74622 94.298H16.9364C18.31 94.298 19.6826 95.6716 19.6826 97.0442C19.6826 98.8748 18.309 99.7905 16.9364 99.7905H2.74622C1.3726 99.7905 0 98.8747 0 97.0442ZM40.2823 137.327C38.4518 137.327 37.5361 135.953 37.5361 134.58V120.39C37.5361 119.017 38.4519 117.644 40.2823 117.644C41.656 117.644 43.0286 119.018 43.0286 120.39V134.58C43.0286 135.954 41.6549 137.327 40.2823 137.327ZM51.7263 137.327C49.8958 137.327 48.5222 135.953 48.5222 134.58V120.39C48.5222 119.017 49.8959 117.644 51.7263 117.644C53.0999 117.644 54.4725 119.018 54.4725 120.39V134.58C54.4725 135.954 53.0989 137.327 51.7263 137.327ZM63.1702 137.327C61.3397 137.327 59.9662 135.953 59.9662 134.58V120.39C59.9662 119.017 61.3398 117.644 63.1702 117.644C64.5439 117.644 65.9165 119.018 65.9165 120.39V134.58C65.9165 135.954 64.5428 137.327 63.1702 137.327ZM74.1564 137.327C72.7827 137.327 71.4101 135.953 71.4101 134.58V120.39C71.4101 119.017 72.7838 117.644 74.1564 117.644C75.9869 117.644 77.3604 119.018 77.3604 120.39V134.58C77.3604 135.954 75.9868 137.327 74.1564 137.327ZM85.6003 137.327C84.2267 137.327 82.8541 135.953 82.8541 134.58V120.39C82.8541 119.017 84.2277 117.644 85.6003 117.644C87.4308 117.644 88.8043 119.018 88.8043 120.39V134.58C88.8043 135.954 87.4307 137.327 85.6003 137.327ZM97.0442 137.327C95.6706 137.327 94.298 135.953 94.298 134.58V120.39C94.298 119.017 95.6716 117.644 97.0442 117.644C98.8748 117.644 99.7905 119.018 99.7905 120.39V134.58C99.7905 135.954 98.8747 137.327 97.0442 137.327ZM137.327 97.0442C137.327 98.8748 135.953 99.7905 134.58 99.7905H120.39C119.017 99.7905 117.644 98.8747 117.644 97.0442C117.644 95.6706 119.018 94.298 120.39 94.298H134.58C135.954 94.298 137.327 95.6716 137.327 97.0442ZM137.327 85.6003C137.327 87.4308 135.953 88.8043 134.58 88.8043H120.39C119.017 88.8043 117.644 87.4307 117.644 85.6003C117.644 84.2267 119.018 82.8541 120.39 82.8541H134.58C135.954 82.8541 137.327 84.2277 137.327 85.6003ZM137.327 74.1563C137.327 75.9869 135.953 77.3604 134.58 77.3604H120.39C119.017 77.3604 117.644 75.9868 117.644 74.1563C117.644 72.7827 119.018 71.4101 120.39 71.4101H134.58C135.954 71.4101 137.327 72.7838 137.327 74.1563ZM137.327 63.1702C137.327 64.5439 135.953 65.9165 134.58 65.9165H120.39C119.017 65.9165 117.644 64.5428 117.644 63.1702C117.644 61.3397 119.018 59.9662 120.39 59.9662H134.58C135.954 59.9662 137.327 61.3398 137.327 63.1702ZM137.327 51.7263C137.327 53.0999 135.953 54.4725 134.58 54.4725H120.39C119.017 54.4725 117.644 53.0989 117.644 51.7263C117.644 49.8958 119.018 48.5222 120.39 48.5222H134.58C135.954 48.5222 137.327 49.8959 137.327 51.7263ZM137.327 40.2823C137.327 41.656 135.953 43.0286 134.58 43.0286H120.39C119.017 43.0286 117.644 41.6549 117.644 40.2823C117.644 38.4518 119.018 37.5361 120.39 37.5361H134.58C135.954 37.5361 137.327 38.4519 137.327 40.2823ZM97.0442 0C98.8748 0 99.7905 1.37363 99.7905 2.74622V16.9364C99.7905 18.31 98.8747 19.6826 97.0442 19.6826C95.6706 19.6826 94.298 18.309 94.298 16.9364V2.74622C94.298 1.3726 95.6716 0 97.0442 0ZM85.6003 0C87.4308 0 88.8043 1.37363 88.8043 2.74622V16.9364C88.8043 18.31 87.4307 19.6826 85.6003 19.6826C84.2267 19.6826 82.8541 18.309 82.8541 16.9364V2.74622C82.8541 1.3726 84.2277 0 85.6003 0ZM74.1564 0C75.9869 0 77.3604 1.37363 77.3604 2.74622V16.9364C77.3604 18.31 75.9868 19.6826 74.1564 19.6826C72.7827 19.6826 71.4101 18.309 71.4101 16.9364V2.74622C71.4101 1.3726 72.7838 0 74.1564 0ZM63.1702 0C64.5439 0 65.9165 1.37363 65.9165 2.74622V16.9364C65.9165 18.31 64.5428 19.6826 63.1702 19.6826C61.3397 19.6826 59.9662 18.309 59.9662 16.9364V2.74622C59.9662 1.3726 61.3398 0 63.1702 0ZM51.7263 0C53.0999 0 54.4725 1.37363 54.4725 2.74622V16.9364C54.4725 18.31 53.0989 19.6826 51.7263 19.6826C49.8958 19.6826 48.5222 18.309 48.5222 16.9364V2.74622C48.5222 1.3726 49.8959 0 51.7263 0ZM40.2823 0C41.656 0 43.0286 1.37363 43.0286 2.74622V16.9364C43.0286 18.31 41.6549 19.6826 40.2823 19.6826C38.4518 19.6826 37.5361 18.309 37.5361 16.9364V2.74622C37.5361 1.3726 38.4519 0 40.2823 0Z" fill="#FF7700"/>
</svg>
