<svg width="82" height="27" viewBox="0 0 82 27" fill="none" xmlns="http://www.w3.org/2000/svg">
<g clip-path="url(#clip0_1166_2216)">
<path d="M2.50608 23.9832C2.41564 24.1539 2.26976 24.2925 2.07138 24.399C1.87153 24.5054 1.61626 24.5594 1.30409 24.5594H0.619955V26.0925H0V22.3145H1.30555C1.59584 22.3145 1.8409 22.364 2.0422 22.4647C2.24351 22.5639 2.39376 22.6996 2.49295 22.8702C2.59214 23.0409 2.64174 23.2305 2.64174 23.4406C2.64174 23.6331 2.59652 23.814 2.50608 23.9847V23.9832ZM1.83215 23.8928C1.94739 23.7863 2.00574 23.6346 2.00574 23.4391C2.00574 23.0263 1.77234 22.8192 1.30409 22.8192H0.619955V24.0532H1.30555C1.54186 24.0532 1.71691 23.9993 1.83361 23.8928H1.83215Z" fill="white"/>
<path d="M3.85531 22.3145V26.0925H3.23535V22.3145H3.85531Z" fill="white"/>
<path d="M4.72206 23.1997C4.89419 22.9065 5.12758 22.6775 5.4237 22.5126C5.71836 22.3478 6.0422 22.2646 6.39375 22.2646C6.79636 22.2646 7.15374 22.3638 7.46737 22.5608C7.78099 22.7577 8.00855 23.0378 8.15005 23.401H7.40464C7.30691 23.2011 7.17125 23.0538 6.9962 22.9546C6.82115 22.8554 6.62131 22.8073 6.39229 22.8073C6.14285 22.8073 5.91967 22.8642 5.7242 22.9765C5.52873 23.0888 5.37557 23.2507 5.2647 23.4608C5.15384 23.6709 5.09841 23.9159 5.09841 24.1945C5.09841 24.4731 5.15384 24.7182 5.2647 24.9283C5.37557 25.1383 5.52873 25.3002 5.7242 25.4155C5.91967 25.5293 6.14285 25.5861 6.39229 25.5861C6.62131 25.5861 6.82115 25.538 6.9962 25.4388C7.17125 25.3396 7.30545 25.1923 7.40464 24.9924H8.15005C8.00855 25.3557 7.78099 25.6343 7.46737 25.8298C7.15374 26.0252 6.79636 26.123 6.39375 26.123C6.03782 26.123 5.71399 26.0413 5.42079 25.875C5.12758 25.7101 4.89419 25.4811 4.72206 25.1879C4.54993 24.8947 4.46387 24.5621 4.46387 24.1931C4.46387 23.824 4.54993 23.4914 4.72206 23.1982V23.1997Z" fill="white"/>
<path d="M11.1501 25.3208H9.56743L9.29611 26.0925H8.64844L10.0021 22.3086H10.7198L12.0735 26.0925H11.4215L11.1501 25.3208ZM10.9766 24.8147L10.3624 23.0584L9.74248 24.8147H10.9766Z" fill="white"/>
<path d="M13.2233 25.9975C13.0206 25.9085 12.8616 25.7831 12.7449 25.6197C12.6282 25.4563 12.5713 25.2667 12.5713 25.0494H13.235C13.2496 25.2127 13.3138 25.3469 13.4276 25.452C13.5413 25.557 13.7018 25.6095 13.9089 25.6095C14.1161 25.6095 14.2897 25.5584 14.4093 25.4549C14.5289 25.3513 14.5887 25.2186 14.5887 25.0552C14.5887 24.9283 14.5522 24.8247 14.4778 24.7459C14.4034 24.6672 14.3115 24.6044 14.2007 24.5607C14.0898 24.5169 13.9366 24.4702 13.7412 24.4192C13.4947 24.3535 13.2948 24.2879 13.1402 24.2208C12.9856 24.1537 12.8543 24.0501 12.7463 23.9086C12.6384 23.7671 12.583 23.579 12.583 23.3427C12.583 23.1253 12.6369 22.9342 12.7463 22.7723C12.8557 22.6104 13.0074 22.4835 13.2029 22.3974C13.3984 22.3099 13.6245 22.2676 13.8827 22.2676C14.2488 22.2676 14.5493 22.3595 14.7827 22.5418C15.0161 22.7242 15.1459 22.9765 15.1722 23.2945H14.4866C14.4764 23.1574 14.4107 23.0392 14.2911 22.9415C14.1715 22.8438 14.014 22.7942 13.8185 22.7942C13.6405 22.7942 13.4961 22.8394 13.3838 22.9298C13.2715 23.0203 13.2146 23.1516 13.2146 23.3208C13.2146 23.436 13.2496 23.5323 13.3211 23.6067C13.3911 23.6811 13.4815 23.7394 13.5909 23.7832C13.7003 23.8269 13.8477 23.8736 14.0373 23.9247C14.2867 23.9932 14.491 24.0633 14.6485 24.1318C14.806 24.2004 14.9402 24.3069 15.0511 24.4498C15.162 24.5928 15.2174 24.7839 15.2174 25.0231C15.2174 25.2156 15.1663 25.3965 15.0628 25.5672C14.9592 25.7379 14.809 25.875 14.612 25.9771C14.4151 26.0807 14.1817 26.1317 13.9133 26.1317C13.6595 26.1317 13.4305 26.088 13.2277 25.999L13.2233 25.9975Z" fill="white"/>
<path d="M16.5075 25.9975C16.3048 25.9085 16.1458 25.7831 16.0291 25.6197C15.9124 25.4563 15.8555 25.2667 15.8555 25.0494H16.5192C16.5338 25.2127 16.598 25.3469 16.7117 25.452C16.8255 25.557 16.986 25.6095 17.1931 25.6095C17.4003 25.6095 17.5738 25.5584 17.6935 25.4549C17.8131 25.3513 17.8729 25.2186 17.8729 25.0552C17.8729 24.9283 17.8364 24.8247 17.762 24.7459C17.6876 24.6672 17.5957 24.6044 17.4849 24.5607C17.374 24.5169 17.2208 24.4702 17.0254 24.4192C16.7788 24.3535 16.579 24.2879 16.4244 24.2208C16.2697 24.1537 16.1385 24.0501 16.0305 23.9086C15.9226 23.7671 15.8671 23.579 15.8671 23.3427C15.8671 23.1253 15.9211 22.9342 16.0305 22.7723C16.1399 22.6104 16.2916 22.4835 16.4871 22.3974C16.6826 22.3099 16.9087 22.2676 17.1669 22.2676C17.533 22.2676 17.8335 22.3595 18.0669 22.5418C18.3003 22.7242 18.4301 22.9765 18.4564 23.2945H17.7708C17.7606 23.1574 17.6949 23.0392 17.5753 22.9415C17.4557 22.8438 17.2981 22.7942 17.1027 22.7942C16.9247 22.7942 16.7803 22.8394 16.668 22.9298C16.5557 23.0203 16.4988 23.1516 16.4988 23.3208C16.4988 23.436 16.5338 23.5323 16.6052 23.6067C16.6753 23.6811 16.7657 23.7394 16.8751 23.7832C16.9845 23.8269 17.1318 23.8736 17.3215 23.9247C17.5709 23.9932 17.7751 24.0633 17.9327 24.1318C18.0902 24.2004 18.2244 24.3069 18.3353 24.4498C18.4462 24.5928 18.5016 24.7839 18.5016 25.0231C18.5016 25.2156 18.4505 25.3965 18.347 25.5672C18.2434 25.7379 18.0931 25.875 17.8962 25.9771C17.6993 26.0807 17.4659 26.1317 17.1975 26.1317C16.9437 26.1317 16.7147 26.088 16.5119 25.999L16.5075 25.9975Z" fill="white"/>
<path d="M19.9833 25.8832C19.6872 25.7184 19.4538 25.4879 19.2816 25.1933C19.1095 24.8986 19.0234 24.566 19.0234 24.1955C19.0234 23.825 19.1095 23.4939 19.2816 23.2007C19.4538 22.9075 19.6872 22.6784 19.9833 22.5136C20.2779 22.3488 20.6018 22.2656 20.9533 22.2656C21.3049 22.2656 21.6345 22.3488 21.9292 22.5136C22.2239 22.6784 22.4573 22.9075 22.6279 23.2007C22.7986 23.4939 22.8832 23.8265 22.8832 24.1955C22.8832 24.5646 22.7986 24.8972 22.6279 25.1933C22.4573 25.4894 22.2253 25.7184 21.9292 25.8832C21.6331 26.0481 21.3078 26.1312 20.9533 26.1312C20.5989 26.1312 20.2779 26.0495 19.9833 25.8832ZM21.6229 25.4208C21.8183 25.3071 21.9715 25.1437 22.0824 24.9322C22.1932 24.7206 22.2487 24.4741 22.2487 24.1955C22.2487 23.9169 22.1932 23.6718 22.0824 23.4618C21.9715 23.2517 21.8183 23.0898 21.6229 22.9775C21.4274 22.8652 21.2042 22.8083 20.9548 22.8083C20.7053 22.8083 20.4822 22.8652 20.2867 22.9775C20.0912 23.0898 19.9381 23.2517 19.8272 23.4618C19.7163 23.6718 19.6609 23.9169 19.6609 24.1955C19.6609 24.4741 19.7163 24.7206 19.8272 24.9322C19.9381 25.1437 20.0912 25.3071 20.2867 25.4208C20.4822 25.5346 20.7053 25.5915 20.9548 25.5915C21.2042 25.5915 21.4274 25.5346 21.6229 25.4208Z" fill="white"/>
<path d="M27.1308 22.3145V22.8206H25.5262V23.9351H26.7763V24.4413H25.5262V26.094H24.9062V22.3159H27.1293L27.1308 22.3145Z" fill="white"/>
<path d="M28.3211 22.3145V24.7228C28.3211 25.0087 28.397 25.2246 28.5472 25.3705C28.6975 25.5149 28.9075 25.5878 29.1745 25.5878C29.4414 25.5878 29.6573 25.5149 29.8076 25.3705C29.9578 25.2261 30.0337 25.0102 30.0337 24.7228V22.3145H30.6536V24.7126C30.6536 25.0204 30.5865 25.2815 30.4523 25.4959C30.3181 25.7103 30.1387 25.8693 29.914 25.9744C29.6894 26.0794 29.4414 26.1319 29.1686 26.1319C28.8959 26.1319 28.6493 26.0794 28.4262 25.9744C28.203 25.8693 28.0265 25.7103 27.8966 25.4959C27.7668 25.2815 27.7012 25.0218 27.7012 24.7126V22.3145H28.3211Z" fill="white"/>
<path d="M33.8991 22.3145V22.8206H32.8926V26.094H32.2726V22.8206H31.2617V22.3145H33.8991Z" fill="white"/>
<path d="M35.1385 22.3145V24.7228C35.1385 25.0087 35.2144 25.2246 35.3646 25.3705C35.5149 25.5149 35.7249 25.5878 35.9919 25.5878C36.2588 25.5878 36.4747 25.5149 36.6249 25.3705C36.7752 25.2261 36.851 25.0102 36.851 24.7228V22.3145H37.471V24.7126C37.471 25.0204 37.4039 25.2815 37.2697 25.4959C37.1355 25.7103 36.9561 25.8693 36.7314 25.9744C36.5068 26.0794 36.2588 26.1319 35.986 26.1319C35.7132 26.1319 35.4667 26.0794 35.2435 25.9744C35.0204 25.8693 34.8438 25.7103 34.714 25.4959C34.5842 25.2815 34.5186 25.0218 34.5186 24.7126V22.3145H35.1385Z" fill="white"/>
<path d="M40.2393 26.0925L39.3699 24.5813H38.8973V26.0925H38.2773V22.3145H39.5829C39.8732 22.3145 40.1182 22.3655 40.3195 22.4662C40.5209 22.5668 40.6711 22.7039 40.7703 22.8731C40.8695 23.0424 40.9205 23.2334 40.9205 23.4435C40.9205 23.69 40.8491 23.9132 40.7061 24.1145C40.5632 24.3158 40.3429 24.4529 40.0453 24.5244L40.9803 26.0896H40.2408L40.2393 26.0925ZM38.8958 24.0868H39.5814C39.8134 24.0868 39.9884 24.0284 40.1066 23.9132C40.2247 23.798 40.2831 23.6419 40.2831 23.445C40.2831 23.248 40.2247 23.0963 40.1095 22.9855C39.9928 22.8746 39.8177 22.8192 39.5814 22.8192H38.8958V24.0853V24.0868Z" fill="white"/>
<path d="M42.3319 22.8143V23.9229H43.6374V24.4291H42.3319V25.5873H43.7993V26.0935H41.7119V22.3096H43.7993V22.8157H42.3319V22.8143Z" fill="white"/>
<path d="M48.4162 22.3145V22.8206H47.4111V26.094H46.7912V22.8206H45.7803V22.3145H48.4176H48.4162Z" fill="white"/>
<path d="M49.66 22.8143V23.9229H50.9655V24.4291H49.66V25.5873H51.1275V26.0935H49.04V22.3096H51.1275V22.8157H49.66V22.8143Z" fill="white"/>
<path d="M51.9418 23.1997C52.1139 22.9065 52.3473 22.6775 52.6434 22.5126C52.9381 22.3478 53.2619 22.2646 53.6135 22.2646C54.0161 22.2646 54.3735 22.3638 54.6871 22.5608C55.0007 22.7577 55.2283 23.0378 55.3698 23.401H54.6244C54.5266 23.2011 54.391 23.0538 54.2174 22.9546C54.0438 22.8554 53.8425 22.8073 53.6135 22.8073C53.364 22.8073 53.1409 22.8642 52.9454 22.9765C52.7499 23.0888 52.5968 23.2507 52.4859 23.4608C52.375 23.6709 52.3196 23.9159 52.3196 24.1945C52.3196 24.4731 52.375 24.7182 52.4859 24.9283C52.5968 25.1383 52.7499 25.3002 52.9454 25.4155C53.1409 25.5293 53.364 25.5861 53.6135 25.5861C53.8425 25.5861 54.0438 25.538 54.2174 25.4388C54.391 25.3396 54.5266 25.1923 54.6244 24.9924H55.3698C55.2283 25.3557 55.0007 25.6343 54.6871 25.8298C54.3735 26.0252 54.0161 26.123 53.6135 26.123C53.2576 26.123 52.9337 26.0413 52.6405 25.875C52.3473 25.7101 52.1139 25.4811 51.9418 25.1879C51.7697 24.8947 51.6836 24.5621 51.6836 24.1931C51.6836 23.824 51.7697 23.4914 51.9418 23.1982V23.1997Z" fill="white"/>
<path d="M59.1109 22.3145V26.0925H58.4909V24.4398H56.7127V26.0925H56.0928V22.3145H56.7127V23.9351H58.4909V22.3145H59.1109Z" fill="white"/>
<path d="M63.0299 26.0925H62.41L60.5457 23.2713V26.0925H59.9258V22.3086H60.5457L62.41 25.1254V22.3086H63.0299V26.0925Z" fill="white"/>
<path d="M64.5995 25.8832C64.3034 25.7184 64.07 25.4879 63.8978 25.1933C63.7257 24.8986 63.6396 24.566 63.6396 24.1955C63.6396 23.825 63.7257 23.4939 63.8978 23.2007C64.07 22.9075 64.3034 22.6784 64.5995 22.5136C64.8941 22.3488 65.218 22.2656 65.5695 22.2656C65.9211 22.2656 66.2508 22.3488 66.5454 22.5136C66.8415 22.6784 67.0735 22.9075 67.2441 23.2007C67.4148 23.4939 67.4994 23.8265 67.4994 24.1955C67.4994 24.5646 67.4148 24.8972 67.2441 25.1933C67.0735 25.4894 66.8415 25.7184 66.5454 25.8832C66.2493 26.0481 65.9255 26.1312 65.5695 26.1312C65.2136 26.1312 64.8941 26.0495 64.5995 25.8832ZM66.2391 25.4208C66.4346 25.3071 66.5877 25.1437 66.6986 24.9322C66.8094 24.7206 66.8649 24.4741 66.8649 24.1955C66.8649 23.9169 66.8094 23.6718 66.6986 23.4618C66.5877 23.2517 66.4346 23.0898 66.2391 22.9775C66.0436 22.8652 65.8204 22.8083 65.571 22.8083C65.3216 22.8083 65.0984 22.8652 64.9029 22.9775C64.7074 23.0898 64.5543 23.2517 64.4434 23.4618C64.3325 23.6718 64.2771 23.9169 64.2771 24.1955C64.2771 24.4741 64.3325 24.7206 64.4434 24.9322C64.5543 25.1437 64.7074 25.3071 64.9029 25.4208C65.0984 25.5346 65.3216 25.5915 65.571 25.5915C65.8204 25.5915 66.0436 25.5346 66.2391 25.4208Z" fill="white"/>
<path d="M68.7274 25.5932H70.0052V26.0935H68.1074V22.3154H68.7274V25.5946V25.5932Z" fill="white"/>
<path d="M71.2753 25.8832C70.9791 25.7184 70.7457 25.4879 70.5736 25.1933C70.4015 24.8986 70.3154 24.566 70.3154 24.1955C70.3154 23.825 70.4015 23.4939 70.5736 23.2007C70.7457 22.9075 70.9791 22.6784 71.2753 22.5136C71.5699 22.3488 71.8938 22.2656 72.2453 22.2656C72.5969 22.2656 72.9265 22.3488 73.2212 22.5136C73.5173 22.6784 73.7492 22.9075 73.9199 23.2007C74.0906 23.4939 74.1752 23.8265 74.1752 24.1955C74.1752 24.5646 74.0906 24.8972 73.9199 25.1933C73.7492 25.4894 73.5173 25.7184 73.2212 25.8832C72.9251 26.0481 72.6012 26.1312 72.2453 26.1312C71.8894 26.1312 71.5699 26.0495 71.2753 25.8832ZM72.9149 25.4208C73.1103 25.3071 73.2635 25.1437 73.3744 24.9322C73.4852 24.7206 73.5407 24.4741 73.5407 24.1955C73.5407 23.9169 73.4852 23.6718 73.3744 23.4618C73.2635 23.2517 73.1103 23.0898 72.9149 22.9775C72.7194 22.8652 72.4962 22.8083 72.2468 22.8083C71.9973 22.8083 71.7741 22.8652 71.5787 22.9775C71.3832 23.0898 71.23 23.2517 71.1192 23.4618C71.0083 23.6718 70.9529 23.9169 70.9529 24.1955C70.9529 24.4741 71.0083 24.7206 71.1192 24.9322C71.23 25.1437 71.3832 25.3071 71.5787 25.4208C71.7741 25.5346 71.9973 25.5915 72.2468 25.5915C72.4962 25.5915 72.7194 25.5346 72.9149 25.4208Z" fill="white"/>
<path d="M77.5194 23.4005C77.4217 23.2123 77.286 23.0694 77.1124 22.9731C76.9388 22.8768 76.7375 22.8287 76.5085 22.8287C76.2591 22.8287 76.0359 22.8856 75.8404 22.9979C75.6449 23.1102 75.4918 23.2692 75.3809 23.4764C75.2701 23.6835 75.2146 23.9227 75.2146 24.194C75.2146 24.4654 75.2701 24.7061 75.3809 24.9147C75.4918 25.1233 75.6449 25.2837 75.8404 25.396C76.0359 25.5084 76.2591 25.5652 76.5085 25.5652C76.8455 25.5652 77.1197 25.4704 77.3298 25.2823C77.5398 25.0941 77.6682 24.8388 77.7163 24.5164H76.297V24.0219H78.38V24.5062C78.3407 24.7994 78.2356 25.0693 78.0679 25.3158C77.8987 25.5623 77.6799 25.7593 77.41 25.9051C77.1401 26.0525 76.8396 26.1254 76.51 26.1254C76.154 26.1254 75.8302 26.0437 75.537 25.8774C75.2438 25.7126 75.0104 25.4836 74.8383 25.1904C74.6661 24.8972 74.5801 24.5646 74.5801 24.1955C74.5801 23.8265 74.6661 23.4939 74.8383 23.2007C75.0104 22.9075 75.2438 22.6784 75.5399 22.5136C75.8346 22.3488 76.1584 22.2656 76.51 22.2656C76.9126 22.2656 77.27 22.3648 77.5836 22.5617C77.8972 22.7587 78.1248 23.0387 78.2663 23.402H77.5209L77.5194 23.4005Z" fill="white"/>
<path d="M81.7872 22.3145L80.537 24.7228V26.0925H79.9171V24.7228L78.6611 22.3145H79.3511L80.2263 24.1685L81.1016 22.3145H81.7872Z" fill="white"/>
<path d="M15.1699 5.86816L14.8213 6.67046L15.2954 6.69963L15.6528 6.7186C15.6528 6.40935 15.6907 6.13803 15.7782 5.86816H15.1685H15.1699Z" fill="white"/>
<path d="M23.6793 3.19053C23.5247 3.01695 23.3701 2.8419 23.2052 2.67852C22.7224 2.20444 22.1798 1.78871 21.5904 1.45028C21.0974 1.17021 20.565 0.938273 20.0136 0.763227C19.2886 0.540043 18.5242 0.424805 17.7321 0.424805H17.4039C16.6687 0.46419 15.9627 0.58964 15.2961 0.811365C14.6294 1.03455 13.9905 1.3438 13.4202 1.73911C13.0526 1.98126 12.7039 2.25112 12.3859 2.56037C12.3465 2.59829 12.3086 2.63768 12.2707 2.67561C10.8587 4.06868 9.98926 5.99273 9.98926 8.11954C9.98926 10.2463 10.8601 12.1616 12.2707 13.5533C12.3086 13.5926 12.348 13.6306 12.3859 13.6787C12.7054 13.9777 13.0526 14.2491 13.4202 14.5C13.9905 14.8865 14.6294 15.1958 15.2961 15.419C15.9627 15.6421 16.6687 15.7763 17.4039 15.8055C17.5104 15.8055 17.6271 15.8157 17.7321 15.8157C18.5257 15.8157 19.2886 15.6903 20.0136 15.4671C20.565 15.2935 21.0974 15.0703 21.5904 14.78C22.1798 14.4416 22.7224 14.0259 23.2052 13.5518C23.3701 13.387 23.5247 13.2134 23.6793 13.0398C24.8011 11.7051 25.4779 9.98378 25.4779 8.11808C25.4779 6.25238 24.8011 4.53109 23.6793 3.18616V3.19053ZM15.2961 14.2141C14.5901 13.9632 13.9613 13.5956 13.4202 13.1025C13.3239 13.0252 13.2364 12.9377 13.1488 12.8516C13.2364 12.3586 13.3224 11.8947 13.4202 11.4396C13.7192 9.97065 14.078 8.69281 14.5127 7.61045C14.7841 7.62941 15.0452 7.64983 15.2961 7.6688C16.0794 7.72714 16.7752 7.74611 17.4039 7.72714C18.0706 7.70818 18.6511 7.63962 19.1646 7.52438C19.0289 7.34058 18.9808 7.07947 18.9414 6.72209C18.9414 6.45223 18.8539 6.27718 18.7182 6.14152L17.8868 5.42529C17.7511 5.34798 17.5877 5.26045 17.4025 5.19335C17.1034 5.08687 16.7358 5.0008 16.3099 4.94245L17.4025 4.85493L19.7233 4.67113L20.0136 6.65353L20.0325 6.80815C20.1682 7.64983 20.3418 8.3646 20.6029 8.98456L20.0136 8.97435L18.6788 8.94517C18.1085 9.16836 17.9728 9.78685 18.2821 10.8109L17.4025 10.84L17.1807 10.8503C16.8321 10.8503 16.6585 11.0341 16.7067 11.3914C16.7446 11.7401 16.9196 11.9239 17.3164 11.9239H18.5052L18.5928 12.9012C18.5928 13.5678 18.371 14.1484 17.9743 14.6313C17.7803 14.6313 17.5877 14.6313 17.4039 14.621C16.6308 14.5729 15.935 14.4475 15.2961 14.2155V14.2141ZM12.3859 10.3849L12.0956 11.565C11.747 11.072 11.4859 10.5016 11.3123 9.83499C11.1387 9.1669 11.0512 8.53965 11.1387 8.00722L12.3859 7.04009L13.4202 6.25676L13.6813 6.054C13.585 6.32532 13.4975 6.59518 13.4202 6.85629C13.0817 7.88177 12.7827 8.82847 12.5406 9.78685L12.3859 10.3864V10.3849ZM24.1534 6.75856L23.6793 6.83587L23.2344 6.89422L23.195 6.14006L23.6793 6.27572L23.9784 6.36324C24.114 6.41138 24.1519 6.53829 24.1519 6.76001L24.1534 6.75856ZM23.6793 5.25024L22.3154 5.11458L21.5904 5.19189L21.0872 5.25024L20.9997 4.71927L21.589 4.74844L23.4547 4.85493L23.6779 5.2517L23.6793 5.25024ZM21.9682 6.0044V6.85483L21.5919 6.77752L21.3118 6.71917L21.2637 6.09046L21.5919 6.05108L21.9682 6.00294V6.0044ZM21.5919 3.45164L20.8669 3.43268L20.9151 2.40866C21.166 2.56328 21.3979 2.69895 21.5919 2.83461C21.9114 3.05779 22.1535 3.26055 22.3169 3.47207L21.5919 3.4531V3.45164ZM17.6271 1.60491L19.6868 1.87477L19.5993 3.33495L17.4039 3.51874L16.3113 3.60627C16.6104 3.00673 16.9984 2.43638 17.4039 1.89519C17.4812 1.79892 17.5498 1.70264 17.6271 1.60491ZM13.4216 3.11322C13.973 2.64935 14.6017 2.2905 15.2975 2.02064C15.4915 1.95354 15.6753 1.88498 15.8679 1.82663C15.6943 2.07753 15.5105 2.38678 15.2975 2.76459C15.1035 3.13218 14.8818 3.56688 14.6396 4.05118C14.2618 4.24519 13.8665 4.48587 13.4216 4.77616C13.1415 4.94975 12.8513 5.13354 12.542 5.33631L12.3874 5.43258L11.4013 6.09046C11.5953 5.453 11.9425 4.81409 12.3874 4.19559C12.4355 4.13724 12.4939 4.07014 12.542 4.00158C12.8133 3.67337 13.1022 3.38308 13.4216 3.11176V3.11322ZM15.7804 5.86874C15.6928 6.14006 15.6549 6.40992 15.6549 6.71917L15.2975 6.70021L14.8234 6.67103L15.1721 5.86874H15.7818H15.7804ZM16.9211 6.67103L17.0086 6.05254C17.1341 6.11089 17.2697 6.1882 17.4054 6.27572C17.56 6.38221 17.7248 6.50766 17.8897 6.67249H16.9225L16.9211 6.67103ZM21.5919 13.3811C21.1178 13.7196 20.5956 13.9996 20.015 14.2228C19.8794 14.271 19.7437 14.3191 19.5993 14.3672C19.9479 13.826 19.9961 13.0325 19.7729 11.8728L20.015 11.8918L20.5183 11.921C20.8669 11.921 21.0493 11.7372 21.0886 11.3885C21.1368 11.0311 21.0011 10.8473 20.6058 10.8473H19.7743L19.5526 10.808L19.4272 10.1399C19.6299 10.188 19.8327 10.2274 20.0165 10.2463C20.6452 10.3047 21.1484 10.1792 21.4869 9.86854C21.5263 9.83937 21.5642 9.80144 21.5934 9.76205C21.8545 9.47177 21.9128 9.10417 21.7961 8.66948L21.5934 8.00284L21.5263 7.78112C21.5554 7.79133 21.5744 7.79133 21.5934 7.79133C22.2994 7.91678 23.0054 7.92699 23.6822 7.8205C23.9054 7.79133 24.1169 7.75194 24.3401 7.69505V8.22748C24.3401 9.17419 24.098 10.064 23.6822 10.9159C23.586 11.0997 23.4795 11.2937 23.373 11.4775C22.9091 12.2419 22.3198 12.8793 21.5934 13.3826L21.5919 13.3811Z" fill="#231815"/>
<path d="M21.2607 6.09143L21.3103 6.72014L21.5904 6.77703L21.9668 6.85434V6.00391L21.5904 6.05204L21.2607 6.09143Z" fill="white"/>
<path d="M23.6786 6.27531L23.1943 6.13965L23.2337 6.89381L23.6786 6.83546L24.1527 6.75814C24.1527 6.53642 24.1148 6.40951 23.9791 6.36137L23.6801 6.27385L23.6786 6.27531Z" fill="white"/>
<path d="M17.8866 6.67269C17.7217 6.50785 17.5583 6.3824 17.4023 6.27592C17.2666 6.18839 17.1309 6.11108 17.0055 6.05273L16.918 6.67123H17.8851L17.8866 6.67269Z" fill="white"/>
<path d="M21.5902 2.8322C21.3962 2.69653 21.1643 2.56233 20.9134 2.40625L20.8652 3.43027L21.5902 3.44923L22.3152 3.4682C22.1504 3.25522 21.9097 3.05246 21.5902 2.83074V2.8322Z" fill="#E52081"/>
<path d="M21 4.71875L21.0875 5.24972L21.5908 5.19137L22.3158 5.11406L23.6797 5.24972L23.4565 4.85295L21.5908 4.74792L21 4.71875Z" fill="#00A3E1"/>
<path d="M12.3845 4.19611C11.9396 4.8146 11.5924 5.45352 11.3984 6.09098L12.3845 5.4331L12.5392 5.33682C12.8484 5.13406 13.1387 4.95026 13.4188 4.77668C13.8637 4.48639 14.2604 4.24424 14.6368 4.05169C14.8789 3.56886 15.1007 3.1327 15.2947 2.7651C15.5076 2.38875 15.6914 2.07805 15.865 1.82715C15.671 1.8855 15.4872 1.9526 15.2947 2.02116C14.5989 2.29102 13.9702 2.64987 13.4188 3.11374C13.0993 3.3836 12.809 3.67388 12.5392 4.00356C12.491 4.07066 12.4327 4.13922 12.3845 4.19756V4.19611Z" fill="#E52081"/>
<path d="M17.4022 3.51931L19.5975 3.33551L19.685 1.87533L17.6253 1.60547C17.548 1.70174 17.4809 1.79802 17.4022 1.89575C16.9966 2.43694 16.6086 3.0073 16.3096 3.60683L17.4022 3.51931Z" fill="#E52081"/>
<path d="M18.5924 12.8971L18.5048 11.9197H17.316C16.9192 11.9197 16.7456 11.7359 16.7062 11.3873C16.6581 11.0299 16.8317 10.8461 17.1803 10.8461L17.4021 10.8359L18.2817 10.8067C17.9724 9.78125 18.1081 9.16276 18.6784 8.94103L20.0132 8.97021L20.6025 8.98042C20.3414 8.36192 20.1678 7.64569 20.0321 6.80401L20.0132 6.64939L19.7229 4.66699L17.4021 4.85079L16.3095 4.93831C16.7354 4.99666 17.103 5.08273 17.4021 5.18921C17.5859 5.25777 17.7507 5.34384 17.8864 5.42115L18.7178 6.13738C18.8535 6.27304 18.941 6.44663 18.941 6.71795C18.9789 7.07533 19.0285 7.33645 19.1642 7.52024C18.6522 7.63548 18.0716 7.70404 17.4035 7.72301C16.7748 7.74197 16.079 7.72301 15.2957 7.66466C15.0448 7.64569 14.7837 7.62527 14.5123 7.60631C14.0776 8.68868 13.7188 9.96651 13.4198 11.4354C13.3235 11.8906 13.236 12.3544 13.1484 12.8475C13.236 12.935 13.322 13.0211 13.4198 13.0984C13.9609 13.5914 14.5897 13.959 15.2957 14.2099C15.9331 14.4419 16.6304 14.5673 17.4035 14.6154C17.5873 14.6257 17.7813 14.6257 17.9739 14.6257C18.3706 14.1428 18.5924 13.5623 18.5924 12.8956V12.8971Z" fill="#FFB211"/>
<path d="M23.6789 10.9162C24.0946 10.0657 24.3368 9.17591 24.3368 8.22774V7.69531C24.1151 7.75366 23.9021 7.79159 23.6789 7.82076C23.0021 7.92725 22.296 7.91704 21.59 7.79159C21.5711 7.79159 21.5521 7.79159 21.5229 7.78138L21.59 8.0031L21.7928 8.66974C21.9095 9.10443 21.8511 9.47203 21.59 9.76232C21.5608 9.8017 21.5229 9.83963 21.4835 9.8688C21.1451 10.1781 20.6419 10.3035 20.0131 10.2466C19.8294 10.2276 19.6266 10.1883 19.4238 10.1401L19.5493 10.8082L19.771 10.8476H20.6025C20.9992 10.8476 21.1349 11.0314 21.0853 11.3888C21.0459 11.7374 20.8636 11.9212 20.5149 11.9212L20.0117 11.892L19.7695 11.8731C19.9927 13.0342 19.9431 13.8263 19.596 14.3675C19.7404 14.3193 19.876 14.2712 20.0117 14.2231C20.5923 13.9999 21.1145 13.7198 21.5886 13.3814C22.3135 12.8781 22.9029 12.2407 23.3682 11.4763C23.4747 11.2925 23.5812 11.0985 23.6774 10.9147L23.6789 10.9162Z" fill="#00A3E1"/>
<path d="M13.6814 6.05224L13.4203 6.255L12.3861 7.03833L11.1389 8.00546C11.0513 8.53789 11.1389 9.16514 11.3124 9.83324C11.486 10.4999 11.7471 11.0702 12.0958 11.5633L12.3861 10.3832L12.5407 9.78364C12.7828 8.82672 13.0819 7.87855 13.4203 6.85308C13.4976 6.59197 13.5851 6.3221 13.6814 6.05078V6.05224Z" fill="#E52081"/>
<path d="M71.455 6.02411C71.28 5.61859 71.0582 5.34727 70.7971 5.25974L70.4193 5.30788L68.93 5.66527L67.3837 5.88845C67.6448 5.5792 67.8286 5.21161 67.9162 4.81484C68.0897 4.13799 67.9556 3.73101 67.4713 3.54867L66.6296 3.51074H66.6106C66.1759 3.60702 65.7791 3.78206 65.3444 4.09131C64.9477 4.41077 64.7639 4.68063 64.7259 4.95196C64.7259 5.12554 64.7653 5.2612 64.8514 5.445L65.3444 5.88991C65.5662 6.16123 65.6056 6.38296 65.3444 6.51862L64.281 6.92414L61.9704 7.28153C61.9325 7.24214 61.8829 7.10794 61.8829 6.78848L61.8435 5.80239C61.8435 4.85422 61.7472 4.41077 61.5737 4.49684C61.4001 4.54497 61.1769 4.90382 60.9056 5.58066C60.6445 6.2473 60.4227 6.876 60.3352 7.51492L59.2237 7.77603L58.0727 8.00797C57.676 6.92414 56.8255 6.29689 55.5492 6.11309C55.2297 5.93951 54.5718 5.93951 53.5959 6.07371C52.5705 6.20937 51.914 6.38296 51.5071 6.61489C51.2853 6.75055 51.2459 6.70242 51.3335 6.51862C51.6033 6.20937 51.7302 5.80239 51.6427 5.34873C51.6033 4.81775 51.3335 4.49829 50.8886 4.36263C50.1344 4.13945 49.8733 5.127 49.9987 7.28299C49.8733 7.46678 49.602 7.64037 49.2067 7.87231L48.0076 8.31722H47.8719L45.484 8.63668C45.0391 8.58854 44.7692 8.36535 44.6817 8.00797L44.1493 7.51492C43.9757 7.41865 43.8006 7.33112 43.6664 7.28299C43.3966 7.28299 43.1734 7.41865 42.9998 7.64037C42.7781 7.87231 42.6906 8.18156 42.7781 8.58854C42.8262 8.77234 42.9137 8.85986 43.0873 8.99406L43.6679 9.21724L44.2003 9.40104L44.8188 9.5367C45.8341 9.57463 46.9077 9.35291 48.009 8.94738L48.8989 8.54186C49.4692 8.23261 49.9141 8.23261 50.1855 8.54186H50.7179L50.9396 8.14509C51.1132 7.55577 51.4224 7.24506 51.8674 7.19692L54.9715 6.97374C55.8132 7.06126 56.3442 7.24506 56.6155 7.55431C56.7891 7.73811 56.8285 7.91169 56.7409 8.09549L48.009 9.71029L47.1192 9.89409L42.2354 10.9094L39.248 11.5279L38.6966 11.6446C36.879 12.0515 35.4772 12.4089 34.3642 12.7663L33.8026 12.9793L33.5225 13.0858C31.9952 13.7043 32.6721 14.4686 33.8026 14.4292C33.9762 14.419 34.1702 14.3899 34.3642 14.3417L39.2465 13.0653L42.234 12.282L50.1825 10.2033C53.1992 9.43897 55.2778 8.99406 56.3908 8.81172L56.4784 8.99552L56.5177 9.35291C56.614 9.80803 56.827 10.0298 57.1465 10.0298C57.6789 10.0779 57.9881 9.67236 58.0757 8.77234C58.0757 8.63668 58.3368 8.5404 58.9173 8.36681L60.2039 8.00943L60.2521 8.31867C60.2521 8.54186 60.2521 8.7738 60.2914 8.85986C60.5146 9.35291 60.872 9.57463 61.3549 9.5367C61.8479 9.48857 62.0215 8.99552 61.9354 8.00943C61.8873 7.77749 62.1965 7.64183 62.8632 7.55431L64.5451 7.41865L66.615 7.28299H66.6339L69.776 6.87746C70.2209 6.80015 71.3719 6.68345 71.4784 6.22979V6.08538C71.4784 6.06642 71.4681 6.04599 71.4594 6.02703L71.455 6.02411ZM67.3356 4.71856C67.2962 4.98988 67.0263 5.25974 66.6296 5.48293L66.6106 5.49314C66.3597 5.61859 66.1847 5.66673 66.0111 5.58066C65.8273 5.48439 65.7879 5.30934 65.9148 4.99134C65.9819 4.7594 66.3408 4.20801 66.6106 4.18905H66.6296L67.2481 4.09277C67.3837 4.14091 67.4217 4.36409 67.3356 4.72148V4.71856Z" fill="white"/>
<path d="M41.7121 4.36052L42.2343 4.44804H42.2445C42.7376 4.49618 43.1723 4.41012 43.5311 4.18693L43.6668 4.05127L43.8024 3.91561C44.0242 3.19063 44.0635 2.52254 43.9279 1.84569L43.6186 1.39057L43.27 1.21699C43.0483 1.16885 42.6894 1.25491 42.2445 1.48685H42.2343L41.9338 1.66044C41.4028 1.75671 41.0061 1.93176 40.7829 2.20162C40.5612 2.4248 40.4736 2.69467 40.4736 3.01412C40.513 3.32337 40.6472 3.59469 40.8704 3.81642C41.0936 4.08774 41.4028 4.27154 41.7121 4.3576V4.36052Z" fill="white"/>
<path d="M39.2266 8.18042C38.6081 8.45174 38.2989 8.80913 38.2989 9.26279C38.2609 9.48597 38.347 9.66977 38.5221 9.80397C38.6956 10.0257 38.9188 10.0753 39.2281 10.0257L39.247 10.0155L39.6336 9.89004L39.8947 9.66831L40.166 9.12713C40.2536 8.76974 40.204 8.53635 40.0698 8.31462C39.9443 8.09144 39.7211 8.00537 39.4994 8.09144L39.2485 8.17896H39.2295L39.2266 8.18042Z" fill="white"/>
<path d="M34.3631 8.53744C34.8941 7.59948 35.4265 6.78698 35.9195 6.20641C36.045 5.80089 36.0844 5.52956 35.9195 5.3939C35.7839 5.25824 35.5621 5.30638 35.3783 5.52956L34.3631 6.69946L33.8015 7.39526L31.9256 9.70587C31.3946 10.3827 30.7746 11.3294 30.108 12.5008C29.5274 13.5248 29.2182 14.1637 29.1803 14.3854L29.084 14.8303V15.0623C29.1321 15.8267 29.4034 16.2716 29.9738 16.4058C30.5062 16.5414 30.9511 16.3182 31.3085 15.6895L31.5317 14.7895C31.5317 14.3358 31.6192 14.0251 31.7053 13.7932L33.8029 9.65482L34.3645 8.53306L34.3631 8.53744Z" fill="white"/>
<path d="M32.1485 2.96849C32.5351 3.2296 33.0865 2.98745 33.8013 2.32082C33.8202 2.30186 33.8494 2.27268 33.8786 2.25372L34.3614 2.06992L35.2031 2.02178C35.6961 2.25372 36.0827 2.56297 36.3919 2.96995L36.8748 3.78245C37.0586 4.2755 37.1446 4.90421 37.098 5.75464C37.098 6.16162 37.3678 6.29582 37.9002 6.2083C38.4706 6.07264 38.828 5.85092 39.0512 5.44393C39.1679 5.23096 39.2248 4.99902 39.2452 4.74813C39.2554 4.65185 39.2554 4.56433 39.2452 4.46805C39.2262 4.0917 39.1008 3.69493 38.8776 3.28795C38.2591 1.62501 37.1461 0.590781 35.5998 0.135661L34.3629 0C34.1791 0 33.9953 0.0291743 33.8013 0.077312C33.279 0.221725 32.7189 0.530973 32.0989 0.996304C31.7022 1.30555 31.5286 1.66294 31.568 2.06992C31.6161 2.42731 31.8393 2.69863 32.1485 2.96995V2.96849Z" fill="white"/>
<path d="M69.7475 8.9476C69.6264 8.92572 69.498 8.91113 69.3638 8.91113C68.3486 8.91113 67.5215 9.73677 67.5215 10.7535C67.5215 11.7702 68.3486 12.6017 69.3638 12.6017C69.498 12.6017 69.6264 12.5886 69.7475 12.5579C70.579 12.3843 71.212 11.6419 71.212 10.752C71.212 9.86222 70.579 9.12556 69.7475 8.9476ZM69.7475 12.2735C69.6264 12.3041 69.498 12.3158 69.3638 12.3158C68.5032 12.3158 67.8001 11.6127 67.8001 10.752C67.8001 9.89139 68.5032 9.18537 69.3638 9.18537C69.498 9.18537 69.6264 9.20725 69.7475 9.23934C70.4214 9.40856 70.9276 10.0285 70.9276 10.752C70.9276 11.4756 70.4229 12.097 69.7475 12.2735Z" fill="white"/>
<path d="M69.8109 10.9442C69.7964 10.9311 69.7759 10.9107 69.7468 10.8976C69.7176 10.8742 69.6767 10.8611 69.6388 10.8392C69.6767 10.8305 69.7103 10.8261 69.7468 10.8173C69.9028 10.7838 70.0166 10.7152 70.1012 10.6321C70.2019 10.5241 70.2515 10.3972 70.2515 10.2397C70.2515 10.1201 70.2238 10.0121 70.1596 9.91585C70.1027 9.8152 70.0181 9.74518 69.916 9.70726C69.8751 9.68538 69.8109 9.67079 69.7468 9.66641C69.668 9.64891 69.5775 9.64453 69.4754 9.64453H68.5098V11.8239H68.7957V10.8596H69.1283C69.207 10.8596 69.2566 10.8655 69.2916 10.8655C69.3354 10.8786 69.3792 10.9005 69.4215 10.9297C69.4711 10.9559 69.5134 11.0011 69.5717 11.0741C69.6198 11.1353 69.6797 11.2229 69.7497 11.3279C69.7555 11.341 69.7716 11.3585 69.7774 11.3717L70.0691 11.8239H70.4309L70.0545 11.236C69.9758 11.1222 69.8999 11.023 69.8139 10.9428L69.8109 10.9442ZM69.42 10.6102H68.7942V9.88522H69.4842C69.5892 9.88522 69.6767 9.89981 69.7468 9.92606C69.7832 9.94065 69.8182 9.96253 69.8387 9.98441C69.9145 10.0573 69.9524 10.142 69.9524 10.2397C69.9524 10.3126 69.9306 10.3753 69.8955 10.4381C69.8591 10.492 69.8095 10.5329 69.7453 10.5606C69.7395 10.5606 69.7307 10.5694 69.7234 10.5694C69.6519 10.5956 69.5455 10.6102 69.4171 10.6102H69.42Z" fill="white"/>
</g>
<defs>
<clipPath id="clip0_1166_2216">
<rect width="81.7874" height="26.13" fill="white"/>
</clipPath>
</defs>
</svg>
